<svg width="190" height="52" viewBox="0 0 190 52" fill="none" xmlns="http://www.w3.org/2000/svg">
<path fill-rule="evenodd" clip-rule="evenodd" d="M26 0C40.36 0 52 11.64 52 26C52 40.36 40.36 52 26 52C11.64 52 0 40.36 0 26C0 11.64 11.64 0 26 0ZM9.7 21.48C12.89 21.48 15.47 24.06 15.47 27.25C15.47 28.9 14.78 30.39 13.66 31.44L16.94 36.86L18.4 35.41V29.95C18.4 29.47 18.47 29.13 18.57 28.63C19.25 25.28 22.21 22.75 25.76 22.75C29.31 22.75 32.01 25.05 32.85 28.18C33.01 28.76 33.05 29.11 33.06 29.71C33.07 30.55 33.03 31.65 33.03 32.49V35.4L34.5 36.85L37.76 31.39C36.67 30.34 35.99 28.87 35.99 27.23C35.99 24.04 38.57 21.46 41.76 21.46C44.95 21.46 47.53 24.04 47.53 27.23C47.53 29.75 45.91 31.89 43.66 32.68L40.16 38.8H33.02H32.48H26.94V29.83H26.89C26.89 29.17 26.35 28.63 25.69 28.63C25.03 28.63 24.49 29.17 24.49 29.83V37.3H24.48V38.79H11.35L7.73999 32.65C5.50999 31.85 3.92 29.72 3.92 27.22C3.92 24.03 6.49999 21.45 9.68999 21.45L9.7 21.48ZM25.82 7.45999C29.53 7.45999 32.54 10.47 32.54 14.18C32.54 17.89 29.53 20.9 25.82 20.9C22.11 20.9 19.1 17.89 19.1 14.18C19.1 10.47 22.11 7.45999 25.82 7.45999ZM189.76 15.31V18.31H186.64V22.31H189.74V25.17L186.64 25.18V29.93H180.89V11.07H186.64V15.32H189.76V15.31ZM186.67 41.17H180.8V35.65L159.19 35.64V32.51H184.61C186.18 32.51 186.66 32.68 186.66 34.31V41.17H186.67ZM178.52 18.31C179.5 21.87 177.97 25.1 176.15 26.93C170.25 32.83 157.55 30.08 157.16 21.06C157.09 19.48 157.69 17.24 158.41 16.07C159.73 13.9 162.7 11.73 166.53 11.32C172.43 10.69 177.24 13.66 178.52 18.31ZM168.03 26.68C175.14 26.59 174.73 13.92 167.53 14.69C160.95 15.39 161.33 26.76 168.03 26.68ZM155.43 40.79H150.54V11.31H155.41L155.43 40.79ZM148.29 11.31V40.79H143.54V22.55H139.17V19.3H143.54V11.31H148.29ZM141.92 31.05L139.42 34.67C136.84 33.09 134.15 31.61 132.67 28.92C130.94 31.52 128.55 33.46 125.55 34.79L123.49 31.07C125.18 30.02 128.01 28.75 129.05 26.17C129.35 25.44 129.53 24.63 129.53 23.77L129.55 15.7L124.68 15.68V12.32H139.79V15.69H135.42V23.68C135.89 27.73 139.35 29.2 141.91 31.05H141.92ZM121.81 11.06V32.54H116.55L116.57 11.06H121.82H121.81ZM121.69 37.29V40.91C113.66 40.91 105.63 40.91 97.6 40.91C95.3 40.91 94.95 40.54 94.95 38.24V32.16C96.69 32.16 98.46 32.16 100.21 32.16V37.16C107.12 37.45 114.57 37.2 121.69 37.28V37.29ZM113.07 16.94C116.87 26.05 105.98 32.4 98.58 28.93C95.35 27.41 91.31 22.74 93.58 17.07C94.78 14.07 97.65 11.43 102.57 11.07C107.5 10.71 111.6 13.43 113.06 16.94H113.07ZM102.83 26.68C110.46 27.43 110 12.84 102.46 14.31C96.98 15.38 96.98 26.1 102.83 26.68ZM88.57 19.18H91.56V22.55H88.58V32.17H83.17V11.06H88.57V19.18ZM88.34 37.17V40.67H63.37C62.05 40.65 61.49 40.4 61.49 39.01V32.67H67.11V37.04C73.94 37.33 81.31 37.08 88.34 37.16V37.17ZM81.1 12.94V16.44H78.98C79.79 17.29 80.93 18.27 80.98 20.06C81.08 23.98 77.26 26.07 73.48 26.43V27.93H80.98V31.18C74.11 31.47 66.7 31.22 59.62 31.3V28.05H67.49V26.48C64.21 25.74 60.01 24.68 59.62 20.83C59.4 18.66 60.96 16.88 62.32 16.17H59.62V12.8H67.61L67.73 10.3H73.47V12.8L81.09 12.93L81.1 12.94ZM65.01 20.81C65.37 25.43 76.15 25.19 76 20.44C75.92 18.03 72.86 17.02 70.47 17.01C68.21 17.01 64.78 17.9 65 20.81H65.01Z" fill="#163F97"/>
</svg>
