<svg xmlns="http://www.w3.org/2000/svg" width="253.0587mm" height="86.788033mm" viewBox="0 0 253.0587 86.788033"><g style="stroke-width:.290682"><path d="M355.492 235.45h-18.879l-1.343 1.698h17.34v13.188h-4.024v-9.149h-3.984l1.183.442v8.707h-3.445v-9.149h-3.98l1.183.442v8.707h-5.676l-1.344 1.7h25.48l1.345-1.7h-3.856M252.855 235.89v17.274h2.883V235.45h-4.066M248.242 244.66h-7.21l1.886-2.613h5.324zm0-8.77v4.454h-4.101l1.257-1.742c.23-.32.262-.598.254-.766-.148-1.082-1.351-1.016-1.351-1.016h-9.719l-1.344 1.7h9.227l-8.805 12.234-1.89.617h4.425l3.614-5.012h8.433v6.805h2.887V235.45h-4.066M275.844 250.512c-.395 1.258-2.723 1.793-5.207 1.191-2.48-.61-4.172-2.121-3.77-3.383.39-1.258 2.727-1.785 5.203-1.191 2.493.613 4.176 2.129 3.774 3.383m-4.524-5.188c-4.55-.008-8.25 1.82-8.254 4.086-.004 2.266 3.676 4.106 8.239 4.117 4.55.008 8.25-1.824 8.254-4.086.008-2.273-3.688-4.113-8.239-4.117M277.715 240.742h-3.559v-1.527h3.559zm-6.36 1.75h-8.71v-4.672h8.71zm6.36-6.601v1.625h-3.559v-1.395h-15.492l1.18.441v7.633h14.312v-1.754h3.559v2.176h2.883v-9.168h-4.063M312.61 240.215c.343-1.281 2.394-1.813 4.574-1.211 2.191.625 3.671 2.156 3.316 3.43-.348 1.277-2.395 1.82-4.578 1.21-2.18-.62-3.664-2.152-3.313-3.43m-3.343 1.102c0 2.297 3.234 4.164 7.242 4.176 4 .012 7.254-1.847 7.258-4.144.004-1.09-.727-2.082-1.918-2.828h1.918l1.343-1.7h-7.187v-1.37h-4.067l1.184.44v.93h-6.031l-1.348 1.7h3.508c-1.176.738-1.898 1.718-1.902 2.796" style="fill:#003f97;fill-opacity:1;fill-rule:nonzero;stroke:none;stroke-width:.290682" transform="matrix(1.21362 0 0 1.21362 -201.423 -280.062)"/><path d="M333.871 239.688h-3.547v-4.239h-4.062l1.18.442v10.914h-17.09l-1.344 1.699h18.433v4.66h2.883v-11.777h2.203M340.598 262.137c.336-1.067 2.343-1.512 4.472-1.008 2.145.52 3.59 1.8 3.246 2.863-.34 1.067-2.34 1.516-4.476 1.008-2.137-.516-3.586-1.797-3.242-2.863m3.812 4.406c3.914.008 7.094-1.543 7.102-3.457.004-1.723-2.543-3.148-5.89-3.434v-1.125h-4.063l1.18.442v.73c-3.098.364-5.407 1.727-5.41 3.36 0 1.918 3.163 3.476 7.081 3.484" style="fill:#003f97;fill-opacity:1;fill-rule:nonzero;stroke:none;stroke-width:.290682" transform="matrix(1.21362 0 0 1.21362 -201.423 -280.062)"/><path d="m353.68 258.527 1.183.442v10.672h-5.031l-1.344 1.699h6.375v3.203h-13.277v-3.953h-4.063l1.18.441v5.211h19.04v-17.715" style="fill:#003f97;fill-opacity:1;fill-rule:nonzero;stroke:none;stroke-width:.290682" transform="matrix(1.21362 0 0 1.21362 -201.423 -280.062)"/><path d="M343.047 272.57h2.887v-3.765h5.652l1.344-1.7h-16.504l-1.348 1.7h7.969M250.098 273.59c-.45 1.258-3.102 1.793-5.93 1.191-2.824-.61-4.75-2.12-4.29-3.383.442-1.257 3.102-1.785 5.923-1.191 2.84.613 4.758 2.129 4.297 3.383m7.656-6.578H246.55v-2.25h7.12l1.349-1.7h-16.676v-2.835h15.328l1.348-1.7h-20.657l1.18.442v5.793h8.125v2.25h-10.621l-1.348 1.699h9.82c-3.238.61-5.519 2.07-5.523 3.777-.004 2.266 3.988 4.106 8.934 4.117 4.937.008 8.949-1.824 8.953-4.085.004-1.723-2.293-3.196-5.559-3.81h8.086M273.023 268.762h3.391l-7.746-8.621v-1.614h-4.066l1.183.442v1.164l-7.758 8.629h3.391l5.805-6.446" style="fill:#003f97;fill-opacity:1;fill-rule:nonzero;stroke:none;stroke-width:.290682" transform="matrix(1.21362 0 0 1.21362 -201.423 -280.062)"/><path d="M280.512 258.527h-4.067l1.184.442v15.574h-11.734v-4.621h-4.067l1.18.441v5.88h17.504v-10.305h2.203l1.344-1.7h-3.547M304.121 276.242h2.883v-17.715h-4.063l1.18.442M297.875 266.004c-.371 1.394-2.55 1.984-4.879 1.32-2.324-.676-3.906-2.347-3.527-3.746.363-1.394 2.55-1.976 4.875-1.32 2.332.68 3.91 2.355 3.531 3.746m-4.238-5.746c-4.262-.008-7.727 2.015-7.73 4.523-.005 2.512 3.445 4.547 7.714 4.563 4.266.011 7.73-2.02 7.734-4.528.004-2.515-3.453-4.55-7.718-4.558" style="fill:#003f97;fill-opacity:1;fill-rule:nonzero;stroke:none;stroke-width:.290682" transform="matrix(1.21362 0 0 1.21362 -201.423 -280.062)"/><path d="M294.91 259.2h-4.066l1.18.44v.786h2.886M319.73 270.371h4.977v3.567h-4.977zm7.774 3.567v-3.567h3.851l1.344-1.7h-16.953v-3.112h15.61v-6.36h-18.13l-1.347 1.7h16.594v2.96h-16.79l1.184.442v6.07h4.063v3.567h-6.887l-1.344 1.699h25.477l1.347-1.7M302.578 235.89v5.755h-2.246v-6.196h-4.066l1.18.442v11.074H286.94v-8.445h7.309l1.344-1.7H282.96l1.18.446v11.398h13.304v4.5h2.887v-9.82h2.246v9.82h2.883V235.45h-4.063M304.3 273.422l1.345-1.7h-19.961l-1.344 1.7zM235.176 294.547c0 .875.008 1.508.015 1.664.012.207.028.535.098.629.113.156.453.328 1.14.328.891 0 1.485-.164 2.009-.594.558-.453.734-1.203.734-2.05 0-1.047-.461-1.727-.84-2.063-.8-.727-1.797-.824-2.477-.824-.175 0-.496.023-.566.054-.078.036-.105.079-.105.168-.008.282-.008.996-.008 1.649zm-1.09-.906c0-1.254 0-1.485-.02-1.75-.015-.282-.085-.41-.375-.47a1.67 1.67 0 0 0-.34-.023c-.093 0-.148-.019-.148-.078 0-.054.063-.074.192-.074.464 0 1.011.028 1.257.028.27 0 .82-.028 1.344-.028 1.09 0 2.547 0 3.496.942.438.43.848 1.113.848 2.093 0 1.04-.461 1.832-.953 2.301-.399.39-1.309.973-2.922.973-.313 0-.668-.024-1-.047a11.93 11.93 0 0 0-.856-.05c-.097 0-.289 0-.5.007-.199 0-.425.016-.601.016-.113 0-.172-.024-.172-.082 0-.04.035-.063.137-.063.132 0 .238-.02.316-.035.176-.031.219-.215.25-.453.047-.348.047-1 .047-1.758M247.207 294.523c0-1.847-1.125-2.996-2.559-2.996-1 0-2.144.528-2.144 2.582 0 1.715 1.004 3.075 2.68 3.075.609 0 2.023-.278 2.023-2.66m-5.906-.16c0-1.407.984-3.231 3.601-3.231 2.172 0 3.528 1.195 3.528 3.086 0 1.886-1.399 3.379-3.614 3.379-2.504 0-3.515-1.774-3.515-3.235M250.742 296.36c.016.644.13.859.305.917.148.047.312.059.453.059.094 0 .148.016.148.062 0 .067-.078.082-.203.082-.566 0-.914-.023-1.082-.023-.078 0-.484.023-.937.023-.117 0-.196-.008-.196-.082 0-.046.055-.062.141-.062.113 0 .27-.012.39-.043.227-.066.262-.305.274-1.023l.078-4.856c0-.168.024-.281.114-.281.093 0 .171.105.324.254.101.11 1.43 1.43 2.703 2.625.594.558 1.77 1.746 1.918 1.879h.043l-.086-3.704c-.008-.503-.09-.66-.297-.742-.133-.047-.34-.047-.46-.047-.106 0-.141-.027-.141-.078 0-.062.093-.074.226-.074.453 0 .871.027 1.055.027.097 0 .426-.027.855-.027.114 0 .2.012.2.074 0 .051-.051.078-.157.078-.086 0-.156 0-.262.024-.242.066-.312.238-.324.699l-.093 5.203c0 .184-.036.258-.114.258-.097 0-.199-.09-.297-.184-.55-.492-1.668-1.574-2.574-2.422-.949-.89-1.918-1.898-2.074-2.054h-.027M263.723 296.93c0 .222-.008.238-.114.297-.57.28-1.421.37-2.101.37-2.14 0-4.031-.956-4.031-3.234 0-1.316.722-2.242 1.515-2.695.84-.477 1.617-.535 2.348-.535.601 0 1.37.098 1.547.133.18.03.484.082.687.09.106.008.121.043.121.097 0 .094-.058.324-.058 1.352 0 .132-.028.175-.098.175-.062 0-.078-.043-.09-.109-.023-.187-.066-.453-.293-.683-.261-.262-.96-.641-1.945-.641-.48 0-1.117.031-1.727.508-.492.39-.804 1.007-.804 2.02 0 1.773 1.195 3.1 3.035 3.1.226 0 .531 0 .742-.089.133-.059.164-.164.164-.305v-.773c0-.414 0-.727-.008-.973-.008-.281-.086-.414-.375-.472a2.01 2.01 0 0 0-.34-.024c-.078 0-.129-.015-.129-.066 0-.067.059-.082.18-.082.457 0 1.004.023 1.266.023.273 0 .734-.023 1.023-.023.113 0 .172.015.172.082 0 .05-.05.066-.113.066-.07 0-.13.008-.235.024-.238.043-.324.18-.332.472-.008.246-.008.574-.008.988M265.676 297.383c-.137-.059-.164-.098-.164-.281 0-.454.035-.95.043-1.079.008-.125.035-.214.105-.214.078 0 .086.074.086.14 0 .106.035.281.078.418.195.613.707.832 1.25.832.785 0 1.168-.5 1.168-.937 0-.403-.133-.785-.855-1.32l-.403-.297c-.957-.708-1.289-1.286-1.289-1.954 0-.906.801-1.558 2.016-1.558.566 0 .933.082 1.16.14.078.016.121.04.121.098 0 .11-.035.348-.035.992 0 .18-.027.246-.094.246-.062 0-.09-.05-.09-.148a.969.969 0 0 0-.226-.547c-.133-.156-.383-.402-.95-.402-.648 0-1.038.355-1.038.851 0 .375.199.664.925 1.184l.243.176c1.054.75 1.43 1.316 1.43 2.101 0 .48-.192 1.047-.817 1.438-.438.261-.926.336-1.39.336-.505 0-.9-.059-1.274-.215M273.363 294.969c.043 0 .051-.028.043-.051l-.785-2.027c-.008-.036-.015-.075-.043-.075-.027 0-.043.04-.05.075l-.805 2.02c-.008.03 0 .058.035.058zm-1.777.41c-.047 0-.063.016-.078.066l-.473 1.13c-.09.206-.133.405-.133.503 0 .149.078.258.352.258h.129c.105 0 .133.016.133.062 0 .067-.055.082-.149.082-.281 0-.656-.023-.926-.023-.097 0-.578.023-1.03.023-.11 0-.165-.015-.165-.082 0-.046.035-.062.106-.062.078 0 .199-.012.27-.02.401-.046.566-.328.741-.742l2.188-5.113c.105-.238.16-.328.246-.328.078 0 .129.074.219.265.207.454 1.605 3.75 2.164 5.004.328.743.582.86.765.899.133.023.262.035.368.035.07 0 .113.008.113.063 0 .066-.078.082-.403.082-.312 0-.949 0-1.648-.016-.156-.008-.262-.008-.262-.066 0-.047.036-.063.121-.075.063-.015.125-.09.078-.187l-.695-1.7c-.02-.042-.043-.058-.09-.058" style="fill:#003f97;fill-opacity:1;fill-rule:nonzero;stroke:none;stroke-width:.290682" transform="matrix(1.21362 0 0 1.21362 -201.423 -280.062)"/><path d="M277.832 296.36c.016.644.129.859.305.917.148.047.312.059.453.059.098 0 .148.016.148.062 0 .067-.078.082-.199.082-.566 0-.918-.023-1.082-.023-.078 0-.488.023-.941.023-.118 0-.196-.008-.196-.082 0-.046.055-.062.14-.062.114 0 .27-.012.395-.043.227-.066.262-.305.27-1.023l.078-4.856c0-.168.027-.281.113-.281.094 0 .176.105.325.254.101.11 1.43 1.43 2.703 2.625.593.558 1.77 1.746 1.918 1.879h.047l-.09-3.704c-.008-.503-.086-.66-.297-.742-.129-.047-.34-.047-.461-.047-.105 0-.14-.027-.14-.078 0-.062.097-.074.226-.074.453 0 .875.027 1.055.027.097 0 .43-.027.855-.027.113 0 .2.012.2.074 0 .051-.052.078-.153.078-.09 0-.16 0-.266.024-.242.066-.312.238-.32.699l-.098 5.203c0 .184-.035.258-.113.258-.098 0-.2-.09-.297-.184-.55-.492-1.664-1.574-2.57-2.422-.953-.89-1.922-1.898-2.078-2.054h-.028M288.547 291.348c.023-.141.074-.215.144-.215.075 0 .125.043.239.254l2.382 4.586 2.372-4.645c.07-.129.113-.195.191-.195s.129.082.156.254l.793 5.047c.078.52.168.761.43.836.254.074.426.082.543.082.074 0 .137.008.137.058 0 .063-.106.086-.227.086a50.43 50.43 0 0 1-1.77-.04c-.203-.015-.253-.042-.253-.089 0-.043.035-.066.093-.09.055-.015.078-.125.047-.355l-.523-3.586h-.035l-1.903 3.676c-.203.386-.246.46-.324.46-.078 0-.168-.164-.305-.41-.21-.379-.898-1.64-1.004-1.87-.078-.176-.601-1.15-.906-1.766h-.035l-.453 3.215c-.02.148-.028.257-.028.386 0 .156.114.235.262.266.16.031.281.043.367.043.07 0 .13.015.13.055 0 .074-.079.09-.208.09-.367 0-.758-.024-.918-.024-.164 0-.582.023-.863.023-.086 0-.156-.015-.156-.09 0-.039.054-.054.14-.054.07 0 .13 0 .262-.028.242-.046.313-.37.36-.652M297.32 293.64c0-1.253 0-1.484-.015-1.75-.016-.28-.086-.41-.375-.468a2.01 2.01 0 0 0-.34-.024c-.098 0-.149-.019-.149-.078 0-.054.063-.074.192-.074.234 0 .488.012.707.012.226.008.426.015.55.015.278 0 2.012 0 2.18-.008.164-.019.305-.035.375-.05.043-.008.098-.032.141-.032.043 0 .05.032.05.075 0 .054-.042.156-.07.535-.008.082-.023.445-.043.543-.008.043-.027.09-.085.09-.063 0-.079-.04-.079-.114 0-.058-.011-.199-.054-.297-.059-.148-.149-.246-.582-.296a31.457 31.457 0 0 0-1.239-.036c-.046 0-.062.028-.062.086v2.086c0 .055.008.09.062.09.192 0 1.192 0 1.395-.016.21-.02.34-.043.418-.125.062-.066.098-.109.14-.109.036 0 .06.02.06.066 0 .051-.032.184-.067.602-.008.168-.035.496-.035.555 0 .066 0 .156-.082.156-.059 0-.079-.035-.079-.074-.008-.082-.008-.192-.035-.297-.043-.164-.164-.29-.484-.32-.168-.02-1.031-.028-1.242-.028-.043 0-.051.035-.051.082v.653c0 .28-.008 1.039 0 1.277.016.57.156.695 1.047.695.226 0 .594 0 .82-.097.227-.102.332-.274.39-.614.02-.09.036-.12.098-.12.07 0 .07.062.07.148 0 .187-.07.75-.113.914-.062.215-.14.215-.472.215-.653 0-1.133-.016-1.508-.028a21.597 21.597 0 0 0-.91-.023c-.094 0-.285 0-.496.008-.2 0-.426.015-.602.015-.113 0-.176-.023-.176-.082 0-.039.036-.062.141-.062.133 0 .234-.02.316-.035.172-.031.215-.215.25-.453.043-.348.043-1 .043-1.758M303.926 294.547c0 .875.011 1.508.02 1.664.007.207.023.535.093.629.113.156.453.328 1.145.328.89 0 1.48-.164 2.003-.594.559-.453.735-1.203.735-2.05 0-1.047-.461-1.727-.836-2.063-.805-.727-1.797-.824-2.48-.824-.172 0-.497.023-.567.054-.078.036-.102.079-.102.168-.011.282-.011.996-.011 1.649zm-1.09-.906c0-1.254 0-1.485-.016-1.75-.02-.282-.09-.41-.375-.47a1.693 1.693 0 0 0-.34-.023c-.097 0-.152-.019-.152-.078 0-.054.063-.074.195-.074.461 0 1.012.028 1.254.028.27 0 .82-.028 1.344-.028 1.094 0 2.55 0 3.5.942.434.43.844 1.113.844 2.093 0 1.04-.461 1.832-.95 2.301-.402.39-1.308.973-2.921.973-.317 0-.672-.024-1.004-.047-.332-.027-.637-.05-.856-.05-.093 0-.289 0-.496.007-.203 0-.425.016-.601.016-.114 0-.176-.024-.176-.082 0-.04.035-.063.14-.063.13 0 .235-.02.313-.035.176-.031.219-.215.254-.453.043-.348.043-1 .043-1.758M310.914 293.64c0-1.253 0-1.484-.016-1.75-.019-.28-.105-.417-.296-.46a1.37 1.37 0 0 0-.313-.032c-.09 0-.14-.019-.14-.085 0-.047.07-.067.206-.067.333 0 .883.028 1.137.028.219 0 .735-.028 1.063-.028.117 0 .183.02.183.067 0 .066-.05.085-.136.085-.09 0-.16.008-.262.024-.238.039-.309.18-.324.469-.02.265-.02.496-.02 1.75v1.449c0 .8 0 1.453.035 1.808.028.22.09.372.352.403.121.015.312.035.441.035.098 0 .14.023.14.062 0 .06-.07.082-.163.082-.574 0-1.125-.023-1.363-.023-.2 0-.75.023-1.098.023-.113 0-.176-.023-.176-.082 0-.039.035-.062.14-.062.134 0 .235-.02.317-.035.172-.031.227-.172.25-.41.043-.348.043-1 .043-1.801M314.902 296.7c-.855-.712-1.082-1.634-1.082-2.434 0-.559.184-1.536 1.02-2.258.629-.543 1.46-.875 2.758-.875.543 0 .863.031 1.265.082.332.043.61.117.871.14.098.008.133.051.133.098 0 .066-.027.164-.043.453-.02.274-.012.727-.027.895-.008.12-.028.187-.106.187-.07 0-.086-.066-.086-.183a1.124 1.124 0 0 0-.34-.754c-.288-.29-.968-.516-1.773-.516-.758 0-1.254.184-1.637.516-.64.55-.804 1.336-.804 2.133 0 1.964 1.578 2.937 2.75 2.937.773 0 1.246-.086 1.593-.465.149-.156.262-.394.297-.543.028-.133.043-.164.114-.164.062 0 .078.059.078.121 0 .102-.106.82-.192 1.098-.043.14-.078.183-.226.242-.348.129-1.012.188-1.57.188-1.196 0-2.2-.247-2.993-.899M324.14 294.969c.044 0 .055-.028.044-.051l-.782-2.027c-.011-.036-.02-.075-.047-.075s-.043.04-.05.075l-.801 2.02c-.012.03 0 .058.031.058zm-1.777.41c-.043 0-.062.016-.078.066l-.472 1.13a1.564 1.564 0 0 0-.13.503c0 .149.079.258.348.258h.13c.105 0 .132.016.132.062 0 .067-.055.082-.148.082-.282 0-.657-.023-.926-.023-.098 0-.574.023-1.028.023-.113 0-.168-.015-.168-.082 0-.046.036-.062.106-.062.078 0 .2-.012.27-.02.402-.046.566-.328.742-.742l2.187-5.113c.106-.238.16-.328.246-.328.078 0 .13.074.219.265.21.454 1.605 3.75 2.164 5.004.332.743.582.86.766.899.132.023.261.035.367.035.07 0 .113.008.113.063 0 .066-.078.082-.398.082-.317 0-.953 0-1.653-.016-.156-.008-.261-.008-.261-.066 0-.047.035-.063.125-.075.058-.015.12-.09.078-.187l-.7-1.7c-.015-.042-.042-.058-.085-.058M329.21 295.09c0 1.058 0 1.625.185 1.773.148.125.375.184 1.054.184.465 0 .805-.012 1.02-.235a1.01 1.01 0 0 0 .23-.492c.008-.074.028-.125.094-.125.062 0 .07.043.07.14 0 .09-.062.712-.133.95-.05.18-.093.223-.546.223-.63 0-1.083-.02-1.473-.027a25.569 25.569 0 0 0-1.067-.024c-.097 0-.289 0-.496.008-.203 0-.43.016-.601.016-.113 0-.176-.024-.176-.082 0-.04.035-.063.14-.063.13 0 .235-.02.313-.035.172-.031.219-.215.254-.453.043-.348.043-1 .043-1.758v-1.45c0-1.253 0-1.484-.016-1.75-.019-.28-.09-.41-.375-.468a1.214 1.214 0 0 0-.289-.023c-.097 0-.148-.02-.148-.078 0-.055.062-.075.191-.075.41 0 .957.028 1.196.028.21 0 .843-.028 1.187-.028.121 0 .184.02.184.075 0 .058-.055.078-.156.078-.098 0-.239.004-.344.023-.235.04-.305.18-.32.469-.02.265-.02.496-.02 1.75M336.148 296.7c-.855-.712-1.082-1.634-1.082-2.434 0-.559.184-1.536 1.02-2.258.629-.543 1.457-.875 2.758-.875.539 0 .863.031 1.265.082.332.043.61.117.871.14.098.008.13.051.13.098 0 .066-.024.164-.044.453-.015.274-.008.727-.023.895-.012.12-.027.187-.105.187-.07 0-.09-.066-.09-.183a1.124 1.124 0 0 0-.34-.754c-.285-.29-.969-.516-1.77-.516-.757 0-1.257.184-1.64.516-.637.55-.801 1.336-.801 2.133 0 1.964 1.578 2.937 2.746 2.937.777 0 1.25-.086 1.598-.465.148-.156.261-.394.297-.543.027-.133.043-.164.113-.164.058 0 .078.059.078.121 0 .102-.106.82-.191 1.098-.043.14-.079.183-.227.242-.352.129-1.012.188-1.57.188-1.196 0-2.2-.247-2.993-.899M342.996 293.64c0-1.253 0-1.484-.016-1.75-.019-.28-.085-.41-.375-.468a2.01 2.01 0 0 0-.34-.024c-.097 0-.148-.019-.148-.078 0-.054.059-.074.192-.074.234 0 .488.012.707.012.226.008.425.015.547.015.28 0 2.015 0 2.183-.008.164-.019.305-.035.375-.05.043-.008.094-.032.14-.032.044 0 .052.032.052.075 0 .054-.043.156-.07.535-.009.082-.028.445-.044.543-.011.043-.027.09-.09.09-.058 0-.078-.04-.078-.114 0-.058-.008-.199-.05-.297-.063-.148-.149-.246-.587-.296a31.241 31.241 0 0 0-1.238-.036c-.043 0-.058.028-.058.086v2.086c0 .055.008.09.058.09.192 0 1.196 0 1.399-.016.207-.02.34-.043.418-.125.058-.066.093-.109.136-.109.036 0 .063.02.063.066 0 .051-.035.184-.07.602-.008.168-.036.496-.036.555 0 .066 0 .156-.078.156-.058 0-.078-.035-.078-.074-.008-.082-.008-.192-.035-.297-.043-.164-.164-.29-.488-.32-.164-.02-1.031-.028-1.239-.028-.043 0-.05.035-.05.082v.653c0 .28-.008 1.039 0 1.277.015.57.156.695 1.047.695.226 0 .59 0 .82-.097.223-.102.328-.274.39-.614.016-.09.036-.12.094-.12.07 0 .07.062.07.148 0 .187-.07.75-.113.914-.058.215-.137.215-.469.215-.656 0-1.132-.016-1.507-.028a21.597 21.597 0 0 0-.91-.023c-.094 0-.29 0-.497.008-.203 0-.425.015-.601.015-.113 0-.176-.023-.176-.082 0-.039.035-.062.14-.062.133 0 .235-.02.313-.035.176-.031.219-.215.254-.453.043-.348.043-1 .043-1.758M349 296.36c.016.644.129.859.305.917.148.047.312.059.453.059.098 0 .148.016.148.062 0 .067-.078.082-.203.082-.562 0-.914-.023-1.082-.023-.074 0-.484.023-.937.023-.114 0-.196-.008-.196-.082 0-.046.055-.062.14-.062.114 0 .27-.012.392-.043.226-.066.265-.305.273-1.023l.078-4.856c0-.168.023-.281.113-.281.094 0 .176.105.325.254.101.11 1.43 1.43 2.703 2.625.593.558 1.77 1.746 1.918 1.879h.047l-.09-3.704c-.008-.503-.086-.66-.297-.742-.129-.047-.34-.047-.461-.047-.106 0-.14-.027-.14-.078 0-.062.097-.074.226-.074.457 0 .875.027 1.055.027.097 0 .43-.027.855-.027.113 0 .203.012.203.074 0 .051-.055.078-.156.078-.09 0-.16 0-.266.024-.242.066-.312.238-.32.699l-.098 5.203c0 .184-.035.258-.113.258-.094 0-.2-.09-.297-.184-.55-.492-1.664-1.574-2.574-2.422-.95-.89-1.918-1.898-2.074-2.054h-.028M357.934 291.71l-1.301.032c-.504.016-.715.059-.848.238a.921.921 0 0 0-.144.29c-.02.066-.047.101-.098.101-.062 0-.078-.043-.078-.133 0-.133.164-.883.184-.949.027-.105.05-.156.105-.156.066 0 .156.082.375.097.25.028.582.043.871.043h3.453c.281 0 .473-.027.602-.043.133-.023.203-.039.234-.039.063 0 .074.047.074.172 0 .172-.027.742-.027.957-.008.082-.027.133-.078.133-.07 0-.09-.043-.098-.168l-.008-.09c-.02-.215-.254-.441-1.03-.46l-1.099-.024v3.379c0 .758 0 1.41.043 1.765.028.23.079.414.34.446.125.015.317.035.446.035.097 0 .14.023.14.062 0 .059-.07.082-.164.082-.578 0-1.129-.023-1.37-.023-.2 0-.75.023-1.099.023-.117 0-.175-.023-.175-.082 0-.039.035-.062.14-.062.13 0 .235-.02.313-.035.176-.031.226-.215.254-.453.043-.348.043-1 .043-1.758M362.969 293.64c0-1.253 0-1.484-.02-1.75-.015-.28-.086-.41-.375-.468a2.01 2.01 0 0 0-.34-.024c-.093 0-.148-.019-.148-.078 0-.054.062-.074.191-.074.239 0 .493.012.707.012.227.008.43.015.551.015.278 0 2.016 0 2.18-.008.168-.019.305-.035.375-.05.043-.008.098-.032.14-.032.043 0 .051.032.051.075 0 .054-.043.156-.066.535-.012.082-.027.445-.043.543-.012.043-.027.09-.09.09-.062 0-.078-.04-.078-.114 0-.058-.008-.199-.055-.297-.058-.148-.144-.246-.582-.296a31.457 31.457 0 0 0-1.238-.036c-.043 0-.063.028-.063.086v2.086c0 .055.008.09.063.09.191 0 1.191 0 1.395-.016.21-.02.34-.043.417-.125.063-.066.098-.109.141-.109.035 0 .063.02.063.066 0 .051-.036.184-.075.602-.008.168-.03.496-.03.555 0 .066 0 .156-.079.156-.062 0-.078-.035-.078-.074-.012-.082-.012-.192-.035-.297-.043-.164-.168-.29-.488-.32-.168-.02-1.032-.028-1.243-.028-.043 0-.05.035-.05.082v.653c0 .28-.008 1.039 0 1.277.02.57.16.695 1.047.695.226 0 .593 0 .82-.097.226-.102.332-.274.39-.614.02-.09.036-.12.098-.12.07 0 .07.062.07.148 0 .187-.07.75-.113.914-.062.215-.14.215-.473.215-.652 0-1.132-.016-1.507-.028a21.44 21.44 0 0 0-.91-.023c-.094 0-.286 0-.497.008-.199 0-.425.015-.597.015-.118 0-.176-.023-.176-.082 0-.039.035-.062.137-.062.132 0 .238-.02.316-.035.172-.031.219-.215.254-.453.043-.348.043-1 .043-1.758M369.512 294.29c0 .093.015.124.078.147.183.06.445.082.664.082.348 0 .46-.03.617-.136.262-.184.516-.563.516-1.239 0-1.167-.82-1.507-1.336-1.507-.215 0-.375.008-.461.03-.063.02-.078.052-.078.118zm-1.032-.65c0-1.253 0-1.484-.015-1.75-.02-.28-.086-.413-.375-.468a1.65 1.65 0 0 0-.344-.027c-.094 0-.144-.016-.144-.075 0-.054.058-.074.191-.074.46 0 1.012.028 1.195.028.297 0 .957-.028 1.23-.028.552 0 1.134.051 1.606.356.242.156.59.578.59 1.129 0 .613-.27 1.171-1.148 1.847.773.926 1.379 1.656 1.89 2.168.489.48.848.54.977.563.098.015.176.027.246.027s.105.023.105.063c0 .066-.062.082-.168.082h-.828c-.488 0-.707-.04-.933-.157-.375-.187-.703-.578-1.196-1.21-.347-.454-.75-1.012-.863-1.137-.043-.051-.094-.059-.156-.059l-.762-.02c-.043 0-.066.02-.066.07v.114c0 .77 0 1.418.043 1.766.023.238.078.422.34.453.132.015.324.035.425.035.075 0 .106.023.106.063 0 .058-.059.082-.172.082-.508 0-1.152-.024-1.285-.024-.164 0-.715.024-1.063.024-.113 0-.175-.024-.175-.082 0-.04.035-.063.14-.063.133 0 .235-.02.317-.035.171-.031.214-.215.25-.453.043-.348.043-.996.043-1.758M235.105 284.32h.043c.297-.304 1.57-1.53 1.82-1.812.247-.27.438-.477.438-.617 0-.09-.035-.149-.125-.164-.078-.016-.113-.036-.113-.082 0-.059.047-.075.14-.075.184 0 .665.024.9.024.269 0 .75-.024 1.019-.024.085 0 .148.016.148.075 0 .054-.043.074-.129.074-.125 0-.344.031-.508.09-.27.097-.566.273-.941.617-.27.25-1.586 1.484-1.883 1.781.317.387 2.024 2.125 2.363 2.43.383.347.774.718 1.246.89.262.102.438.125.54.125.062 0 .113.016.113.067 0 .058-.043.082-.207.082h-.758c-.262 0-.422 0-.602-.016-.472-.043-.707-.223-1.082-.539-.382-.32-2.101-2.223-2.285-2.46l-.093-.126h-.043v.75c0 .758 0 1.41.027 1.766.015.23.094.41.312.441.121.02.313.035.426.035.07 0 .113.024.113.067 0 .058-.07.082-.164.082-.488 0-1.039-.024-1.257-.024-.2 0-.747.024-1.098.024-.113 0-.172-.024-.172-.082 0-.043.035-.067.137-.067.133 0 .238-.015.316-.035.172-.031.219-.21.25-.453.047-.344.047-.996.047-1.754v-1.45c0-1.253 0-1.483-.02-1.75-.015-.276-.085-.41-.375-.468a2.01 2.01 0 0 0-.34-.023c-.093 0-.148-.02-.148-.074 0-.06.063-.075.192-.075.464 0 1.011.024 1.222.024.207 0 .758-.024 1.055-.024.121 0 .18.016.18.075 0 .054-.051.074-.121.074-.086 0-.137.008-.243.023-.234.043-.304.184-.324.469-.015.266-.015.496-.015 1.75M241.156 283.96c0-1.253 0-1.483-.02-1.75-.015-.276-.085-.41-.374-.468a1.978 1.978 0 0 0-.34-.023c-.094 0-.149-.02-.149-.074 0-.059.063-.079.196-.079.234 0 .484.012.703.012.226.008.43.016.55.016.278 0 2.012 0 2.176-.008.168-.02.31-.031.38-.051.042-.008.093-.031.136-.031.043 0 .055.031.055.074 0 .059-.047.156-.07.535-.009.082-.028.445-.044.543-.011.04-.027.09-.09.09-.058 0-.077-.04-.077-.113 0-.059-.008-.2-.051-.297-.063-.149-.149-.246-.586-.297a31.403 31.403 0 0 0-1.238-.031c-.043 0-.059.023-.059.082v2.082c0 .058.008.093.059.093.195 0 1.195 0 1.398-.02.207-.015.34-.038.418-.124.059-.063.094-.102.137-.102.035 0 .062.016.062.067 0 .047-.035.18-.07.601-.008.164-.035.493-.035.547 0 .067 0 .16-.078.16-.059 0-.079-.035-.079-.074-.008-.086-.008-.191-.035-.297-.043-.168-.164-.289-.488-.324a40.602 40.602 0 0 0-1.238-.023c-.043 0-.051.035-.051.082v.652c0 .281-.008 1.04 0 1.277.016.57.156.692 1.047.692.222 0 .59 0 .816-.098.227-.098.332-.273.395-.61.015-.093.035-.124.093-.124.07 0 .07.066.07.148 0 .192-.07.75-.113.914-.058.215-.14.215-.468.215-.657 0-1.133-.016-1.508-.023-.375-.016-.649-.028-.906-.028-.098 0-.29 0-.5.012-.2 0-.426.016-.602.016-.11 0-.172-.028-.172-.082 0-.043.035-.067.14-.067.13 0 .235-.015.313-.035.172-.031.22-.215.254-.453.043-.344.043-.996.043-1.754M247.086 283.96c0-1.253 0-1.483-.02-1.75-.02-.276-.105-.42-.296-.46a1.383 1.383 0 0 0-.317-.031c-.086 0-.137-.02-.137-.082 0-.051.07-.07.211-.07.329 0 .88.027 1.133.027.219 0 .73-.027 1.063-.027.113 0 .183.019.183.07 0 .062-.05.082-.14.082a1.69 1.69 0 0 0-.262.023c-.234.043-.305.18-.32.469-.02.266-.02.496-.02 1.75v1.45c0 .8 0 1.448.035 1.804.028.223.086.371.348.402.125.02.312.035.445.035.098 0 .14.024.14.067 0 .054-.07.082-.163.082-.578 0-1.125-.028-1.363-.028-.2 0-.75.028-1.098.028-.113 0-.172-.028-.172-.082 0-.043.031-.067.137-.067.133 0 .234-.015.312-.035.176-.031.23-.172.254-.41.047-.348.047-.996.047-1.797M251.766 281.668c.023-.14.078-.215.148-.215.07 0 .121.043.234.258l2.38 4.578 2.37-4.637c.07-.132.114-.199.192-.199s.129.082.156.258l.793 5.043c.078.52.164.758.426.832.254.074.43.082.543.082.078 0 .14.008.14.059 0 .062-.109.09-.226.09-.223 0-1.422-.016-1.77-.044-.203-.015-.254-.039-.254-.085 0-.043.036-.07.094-.094.055-.016.078-.121.047-.356l-.523-3.586h-.035l-1.903 3.676c-.2.39-.242.461-.32.461-.078 0-.168-.16-.305-.41-.21-.375-.898-1.64-1.004-1.871-.078-.172-.601-1.145-.906-1.762h-.035l-.453 3.215a3.4 3.4 0 0 0-.028.387c0 .156.118.23.262.261.16.036.281.043.367.043.07 0 .133.016.133.06 0 .07-.078.089-.21.089-.364 0-.759-.027-.915-.027-.168 0-.586.027-.863.027-.086 0-.156-.02-.156-.09 0-.043.05-.059.14-.059.067 0 .13 0 .262-.023.242-.05.312-.371.355-.652M261.668 285.664c0-.445-.086-.625-.2-.863-.062-.133-1.23-1.946-1.534-2.375-.215-.305-.438-.512-.602-.602a.975.975 0 0 0-.363-.105c-.074 0-.133-.016-.133-.074 0-.051.059-.079.164-.079.156 0 .813.028 1.102.028.18 0 .539-.028.93-.028.09 0 .132.028.132.079 0 .046-.062.058-.191.09a.15.15 0 0 0-.121.148c0 .066.043.164.101.277.121.25 1.344 2.235 1.485 2.469.085-.2 1.183-2.012 1.304-2.27.086-.18.121-.32.121-.425 0-.082-.035-.176-.18-.207-.078-.016-.16-.036-.16-.082 0-.06.043-.079.149-.079.289 0 .566.028.82.028.192 0 .77-.028.934-.028.093 0 .156.02.156.07 0 .055-.07.083-.168.083a.981.981 0 0 0-.383.097c-.18.082-.277.18-.469.403-.289.332-1.507 2.265-1.664 2.62-.132.302-.132.556-.132.825v.676c0 .133 0 .476.027.824.016.238.094.422.355.453.122.02.317.035.438.035.098 0 .14.024.14.067 0 .054-.07.082-.183.082-.55 0-1.098-.028-1.332-.028-.223 0-.77.028-1.09.028-.125 0-.191-.016-.191-.082 0-.043.043-.067.136-.067.122 0 .227-.015.305-.035.176-.031.254-.215.27-.453.027-.348.027-.691.027-.824M266.578 283.96c0-1.253 0-1.483-.02-1.75-.015-.276-.085-.41-.374-.468a1.978 1.978 0 0 0-.34-.023c-.094 0-.149-.02-.149-.074 0-.059.063-.079.196-.079.46 0 1.007.028 1.27.028.21 0 .76-.028 1.073-.028.13 0 .192.02.192.079 0 .054-.055.074-.14.074-.095 0-.15.008-.255.023-.234.043-.304.18-.32.469-.02.266-.02.496-.02 1.75v1.152c0 1.196.254 1.7.68 2.028.395.304.793.34 1.09.34.383 0 .855-.118 1.203-.446.48-.457.508-1.195.508-2.047v-1.027c0-1.254 0-1.484-.02-1.75-.015-.277-.085-.41-.375-.469a1.856 1.856 0 0 0-.312-.023c-.098 0-.148-.02-.148-.074 0-.059.062-.079.183-.079.445 0 .992.028 1 .028.106 0 .656-.028.996-.028.121 0 .184.02.184.079 0 .054-.055.074-.16.074-.094 0-.149.008-.25.023-.239.043-.305.18-.325.469-.015.266-.015.496-.015 1.75v.879c0 .918-.098 1.887-.828 2.48-.621.504-1.246.594-1.813.594-.465 0-1.3-.023-1.937-.566-.446-.38-.774-.993-.774-2.188M275.285 286.68c.02.644.13.855.309.914.144.05.312.058.453.058.094 0 .144.016.144.067 0 .062-.078.082-.199.082-.566 0-.914-.028-1.082-.028-.078 0-.484.028-.941.028-.114 0-.192-.008-.192-.082 0-.051.051-.067.141-.067.113 0 .27-.008.39-.043.227-.062.262-.304.27-1.02l.082-4.855c0-.164.024-.28.113-.28.094 0 .172.108.32.257.106.105 1.43 1.426 2.704 2.617.594.563 1.765 1.75 1.918 1.883h.043l-.086-3.703c-.012-.504-.09-.656-.297-.742-.133-.047-.34-.047-.465-.047-.101 0-.137-.028-.137-.074 0-.067.094-.075.227-.075.453 0 .871.024 1.055.024.093 0 .425-.024.851-.024.114 0 .2.008.2.074 0 .047-.051.075-.157.075-.086 0-.156 0-.261.023-.243.066-.313.238-.32.7l-.098 5.202c0 .18-.036.254-.114.254-.093 0-.199-.09-.297-.18-.547-.495-1.664-1.574-2.57-2.425-.95-.887-1.918-1.895-2.074-2.05h-.024M288.676 287.246c0 .227-.012.238-.114.3-.566.278-1.421.368-2.101.368-2.137 0-4.024-.953-4.024-3.227 0-1.32.72-2.246 1.512-2.699.84-.476 1.614-.535 2.348-.535.601 0 1.367.102 1.543.133.18.031.484.082.687.09.106.008.121.043.121.097 0 .094-.058.325-.058 1.356 0 .129-.027.172-.098.172-.062 0-.078-.043-.09-.11-.023-.187-.066-.453-.293-.683-.261-.262-.96-.64-1.945-.64-.476 0-1.113.03-1.723.51-.492.388-.804 1.005-.804 2.017 0 1.773 1.195 3.101 3.035 3.101.226 0 .531 0 .738-.094.133-.054.168-.164.168-.3v-.778c0-.414 0-.722-.012-.972-.008-.282-.085-.414-.37-.47a1.99 1.99 0 0 0-.34-.026c-.083 0-.133-.012-.133-.063 0-.066.062-.082.18-.082.456 0 1.003.023 1.269.023.27 0 .73-.023 1.016-.023.113 0 .175.016.175.082 0 .05-.05.063-.113.063-.07 0-.129.011-.234.027-.239.039-.325.18-.332.469-.008.25-.008.578-.008.988M294.188 283.96c0-1.253 0-1.483-.02-1.75-.016-.276-.086-.41-.375-.468a2.01 2.01 0 0 0-.34-.023c-.094 0-.148-.02-.148-.074 0-.059.062-.079.191-.079.465 0 1.012.028 1.274.028.21 0 .757-.028 1.074-.028.129 0 .191.02.191.079 0 .054-.055.074-.14.074-.098 0-.149.008-.254.023-.235.043-.305.18-.32.469-.02.266-.02.496-.02 1.75v1.152c0 1.196.254 1.7.68 2.028.394.304.792.34 1.09.34.382 0 .855-.118 1.202-.446.481-.457.504-1.195.504-2.047v-1.027c0-1.254 0-1.484-.015-1.75-.016-.277-.086-.41-.375-.469a1.89 1.89 0 0 0-.313-.023c-.097 0-.148-.02-.148-.074 0-.059.058-.079.183-.079.446 0 .993.028 1 .028.106 0 .657-.028.997-.028.12 0 .183.02.183.079 0 .054-.055.074-.16.074-.094 0-.148.008-.25.023-.238.043-.309.18-.324.469-.016.266-.016.496-.016 1.75v.879c0 .918-.097 1.887-.828 2.48-.621.504-1.246.594-1.812.594-.465 0-1.301-.023-1.938-.566-.441-.38-.773-.993-.773-2.188M302.895 286.68c.015.644.128.855.304.914.149.05.317.058.453.058.098 0 .149.016.149.067 0 .062-.078.082-.2.082-.566 0-.914-.028-1.081-.028-.079 0-.489.028-.942.028-.113 0-.191-.008-.191-.082 0-.051.05-.067.14-.067.114 0 .27-.008.391-.043.227-.062.262-.304.27-1.02l.081-4.855c0-.164.024-.28.114-.28.093 0 .172.108.32.257.106.105 1.43 1.426 2.703 2.617.59.563 1.766 1.75 1.914 1.883h.047l-.09-3.703c-.008-.504-.086-.656-.293-.742-.133-.047-.34-.047-.465-.047-.105 0-.136-.028-.136-.074 0-.067.093-.075.226-.075.453 0 .871.024 1.055.024.094 0 .426-.024.852-.024.113 0 .199.008.199.074 0 .047-.051.075-.156.075-.086 0-.157 0-.262.023-.242.066-.313.238-.32.7l-.098 5.202c0 .18-.035.254-.113.254-.094 0-.2-.09-.297-.18-.547-.495-1.664-1.574-2.57-2.425-.95-.887-1.919-1.895-2.075-2.05h-.023M311.082 283.96c0-1.253 0-1.483-.016-1.75-.02-.276-.105-.42-.296-.46a1.405 1.405 0 0 0-.317-.031c-.086 0-.14-.02-.14-.082 0-.051.074-.07.21-.07.332 0 .88.027 1.133.027.219 0 .735-.027 1.063-.027.113 0 .183.019.183.07 0 .062-.05.082-.136.082-.09 0-.16.008-.262.023-.234.043-.309.18-.324.469-.016.266-.016.496-.016 1.75v1.45c0 .8 0 1.448.031 1.804.028.223.09.371.352.402.121.02.312.035.441.035.098 0 .14.024.14.067 0 .054-.065.082-.163.082-.574 0-1.125-.028-1.36-.028-.203 0-.75.028-1.097.028-.113 0-.176-.028-.176-.082 0-.043.035-.067.14-.067.13 0 .235-.015.313-.035.176-.031.227-.172.254-.41.043-.348.043-.996.043-1.797M314.637 282.379c-.2-.457-.348-.547-.66-.629-.133-.031-.274-.031-.34-.031-.078 0-.106-.028-.106-.074 0-.067.098-.079.227-.079.46 0 .957.028 1.265.028.215 0 .633-.028 1.07-.028.106 0 .2.02.2.079 0 .054-.05.074-.129.074-.14 0-.27.008-.34.054a.193.193 0 0 0-.09.172c0 .11.082.34.203.637l1.5 3.742h.032c.379-.906 1.507-3.558 1.718-4.105a.97.97 0 0 0 .079-.305.163.163 0 0 0-.114-.156 1.286 1.286 0 0 0-.347-.04c-.079 0-.149-.007-.149-.07 0-.062.078-.082.242-.082.438 0 .805.028.918.028.149 0 .555-.028.817-.028.113 0 .183.02.183.079 0 .054-.05.074-.136.074-.09 0-.274 0-.43.097-.113.075-.242.215-.477.743-.34.777-.578 1.218-1.047 2.23-.558 1.207-.968 2.106-1.16 2.516-.226.48-.277.61-.402.61-.113 0-.164-.114-.328-.5M322.172 283.96c0-1.253 0-1.483-.02-1.75-.015-.276-.086-.41-.375-.468a1.947 1.947 0 0 0-.34-.023c-.093 0-.148-.02-.148-.074 0-.059.063-.079.192-.079.238 0 .492.012.707.012.226.008.43.016.546.016.282 0 2.016 0 2.18-.008.168-.02.309-.031.375-.051.047-.008.098-.031.14-.031.044 0 .055.031.055.074 0 .059-.046.156-.07.535-.012.082-.027.445-.043.543-.012.04-.027.09-.09.09-.058 0-.078-.04-.078-.113 0-.059-.008-.2-.054-.297-.06-.149-.145-.246-.583-.297a31.403 31.403 0 0 0-1.238-.031c-.043 0-.058.023-.058.082v2.082c0 .058.008.093.058.093.192 0 1.196 0 1.399-.02.207-.015.336-.038.418-.124.058-.063.093-.102.136-.102.036 0 .063.016.063.067 0 .047-.035.18-.07.601-.008.164-.036.493-.036.547 0 .067 0 .16-.078.16-.058 0-.078-.035-.078-.074-.008-.086-.008-.191-.035-.297-.043-.168-.164-.289-.488-.324a40.602 40.602 0 0 0-1.239-.023c-.043 0-.05.035-.05.082v.652c0 .281-.012 1.04 0 1.277.015.57.156.692 1.043.692.226 0 .593 0 .82-.098.226-.098.332-.273.39-.61.02-.093.04-.124.098-.124.07 0 .07.066.07.148 0 .192-.07.75-.113.914-.059.215-.14.215-.469.215-.656 0-1.132-.016-1.507-.023-.375-.016-.649-.028-.91-.028-.094 0-.286 0-.497.012-.199 0-.425.016-.597.016-.118 0-.176-.028-.176-.082 0-.043.035-.067.14-.067.13 0 .235-.015.31-.035.175-.031.222-.215.257-.453.043-.344.043-.996.043-1.754M329.129 284.61c0 .09.016.124.074.148.188.058.45.082.664.082.348 0 .461-.031.621-.14.258-.18.512-.56.512-1.235 0-1.168-.816-1.508-1.332-1.508-.219 0-.375.008-.465.031-.058.02-.074.051-.074.117zm-1.031-.65c0-1.253 0-1.483-.016-1.75-.02-.276-.086-.41-.375-.468a2.01 2.01 0 0 0-.34-.023c-.097 0-.148-.02-.148-.074 0-.059.058-.075.191-.075.461 0 1.012.024 1.196.024.292 0 .957-.024 1.226-.024.55 0 1.133.047 1.606.352.246.16.593.578.593 1.129 0 .613-.27 1.172-1.152 1.848.777.921 1.379 1.656 1.89 2.167.489.481.848.536.977.563.098.016.176.023.242.023.075 0 .106.024.106.067 0 .066-.059.082-.164.082h-.828c-.489 0-.707-.043-.93-.156-.375-.192-.707-.579-1.195-1.211-.348-.454-.75-1.016-.864-1.137-.047-.05-.097-.059-.16-.059l-.758-.02c-.043 0-.066.02-.066.067v.117c0 .766 0 1.418.043 1.762.023.242.074.422.34.453.129.02.32.035.426.035.07 0 .105.024.105.067 0 .058-.062.082-.176.082-.504 0-1.148-.024-1.281-.024-.164 0-.715.024-1.062.024-.114 0-.172-.024-.172-.082 0-.043.035-.067.136-.067.133 0 .239-.015.317-.035.172-.031.215-.21.25-.453.043-.344.043-.996.043-1.754M334.488 287.7c-.136-.055-.164-.098-.164-.278 0-.453.035-.95.043-1.078.008-.125.035-.215.106-.215.078 0 .086.074.086.137 0 .105.035.28.078.421.191.61.707.833 1.246.833.785 0 1.168-.504 1.168-.942 0-.402-.13-.781-.856-1.316l-.398-.297c-.957-.707-1.29-1.285-1.29-1.953 0-.907.802-1.559 2.012-1.559.567 0 .934.082 1.16.14.079.016.122.044.122.098 0 .11-.035.348-.035.993 0 .18-.028.246-.094.246-.063 0-.09-.051-.09-.149a.95.95 0 0 0-.227-.543c-.128-.16-.382-.406-.949-.406-.644 0-1.035.356-1.035.852 0 .375.2.668.922 1.183l.242.176c1.059.75 1.434 1.316 1.434 2.102 0 .476-.196 1.043-.82 1.433-.438.266-.926.336-1.387.336-.504 0-.899-.059-1.274-.215M340.46 283.96c0-1.253 0-1.483-.015-1.75-.02-.276-.105-.42-.297-.46a1.394 1.394 0 0 0-.312-.031c-.09 0-.14-.02-.14-.082 0-.051.07-.07.206-.07.332 0 .88.027 1.133.027.219 0 .735-.027 1.067-.027.113 0 .18.019.18.07 0 .062-.052.082-.137.082-.09 0-.157.008-.262.023-.238.043-.305.18-.324.469-.016.266-.016.496-.016 1.75v1.45c0 .8 0 1.448.035 1.804.024.223.086.371.348.402.12.02.312.035.441.035.098 0 .14.024.14.067 0 .054-.07.082-.163.082-.574 0-1.125-.028-1.36-.028-.203 0-.75.028-1.097.028-.114 0-.176-.028-.176-.082 0-.043.035-.067.14-.067.13 0 .235-.015.313-.035.176-.031.227-.172.254-.41.043-.348.043-.996.043-1.797M345.977 282.031l-1.297.031c-.504.02-.715.06-.844.239a.868.868 0 0 0-.149.289c-.019.066-.043.101-.097.101-.059 0-.078-.043-.078-.132 0-.133.168-.883.183-.95.028-.105.051-.156.106-.156.07 0 .156.082.375.102.25.023.582.039.87.039h3.45c.281 0 .473-.024.602-.04.132-.027.203-.042.238-.042.059 0 .066.05.066.172 0 .175-.023.742-.023.957-.008.082-.027.132-.078.132-.07 0-.09-.043-.098-.164l-.008-.093c-.02-.215-.254-.446-1.031-.461l-1.098-.024v3.38c0 .757 0 1.41.043 1.765.028.226.082.41.344.441.121.02.312.035.441.035.098 0 .141.024.141.067 0 .058-.07.082-.164.082-.578 0-1.125-.024-1.371-.024-.2 0-.75.024-1.098.024-.113 0-.172-.024-.172-.082 0-.043.035-.067.137-.067.133 0 .234-.015.316-.035.172-.031.227-.215.25-.453.043-.344.043-.996.043-1.754M352.445 285.664c0-.445-.086-.625-.199-.863-.062-.133-1.23-1.946-1.531-2.375-.219-.305-.438-.512-.602-.602a.973.973 0 0 0-.367-.105c-.07 0-.133-.016-.133-.074 0-.051.063-.079.168-.079.156 0 .809.028 1.098.028.183 0 .539-.028.933-.028.086 0 .13.028.13.079 0 .046-.063.058-.192.09a.15.15 0 0 0-.121.148c0 .066.043.164.105.277.121.25 1.34 2.235 1.48 2.469.087-.2 1.184-2.012 1.31-2.27.085-.18.12-.32.12-.425 0-.082-.035-.176-.183-.207-.078-.016-.156-.036-.156-.082 0-.06.043-.079.148-.079.285 0 .567.028.817.028.195 0 .77-.028.933-.028.098 0 .156.02.156.07 0 .055-.07.083-.164.083a.966.966 0 0 0-.382.097c-.184.082-.282.18-.473.403-.29.332-1.508 2.265-1.664 2.62-.13.302-.13.556-.13.825v.676c0 .133 0 .476.024.824.02.238.098.422.36.453.12.02.312.035.433.035.098 0 .14.024.14.067 0 .054-.07.082-.183.082-.547 0-1.097-.028-1.332-.028-.219 0-.77.028-1.09.028-.12 0-.191-.016-.191-.082 0-.043.043-.067.14-.067.122 0 .227-.015.305-.035.172-.031.25-.215.27-.453.023-.348.023-.691.023-.824" style="fill:#003f97;fill-opacity:1;fill-rule:nonzero;stroke:none;stroke-width:.290682" transform="matrix(1.21362 0 0 1.21362 -201.423 -280.062)"/><g style="stroke-width:.290682"><path d="M221.824 251.598c-1.949.582-4.43 2.007-4.43 4.613 0 3.008 0 29.39.005 29.508.008.988-.368 6.054-8.555 8.586-1.434.441-2.692.785-3.805 1.09-1.453.398-2.715.742-3.789 1.152-2.695 1.031-4.98 2.433-6.808 4.176-1.829-1.743-4.114-3.145-6.81-4.176-1.073-.41-2.331-.754-3.788-1.152a120.326 120.326 0 0 1-3.8-1.09c-8.196-2.535-8.567-7.598-8.556-8.586l.004-29.508c0-2.606-2.48-4.031-4.433-4.613v-12.664l27.383-7.04 27.382 7.04zm-27.383-20.832-28.472 7.324v14.363s4.43.832 4.43 3.758l-.005 29.496c-.008 1.086.368 6.871 9.329 9.64 3.316 1.024 5.707 1.524 7.523 2.22 3.031 1.16 5.398 2.75 7.195 4.71 1.797-1.96 4.164-3.55 7.2-4.71 1.816-.696 4.203-1.196 7.523-2.22 8.957-2.769 9.332-8.554 9.324-9.64l-.004-29.496c0-2.926 4.434-3.758 4.434-3.758V238.09" style="fill:#003f97;fill-opacity:1;fill-rule:nonzero;stroke:none;stroke-width:.290682" transform="matrix(1.21362 0 0 1.21362 -201.423 -280.062)"/><path d="M194.441 297.16c-1.703-1.265-3.656-2.324-5.832-3.156-1.207-.465-2.523-.82-4.047-1.238-1.132-.313-2.34-.645-3.714-1.067-6.485-2.008-6.637-5.554-6.633-5.953l.004-29.535c0-2.75-1.621-5.066-4.434-6.465v-8.695l24.656-6.34 24.657 6.34v8.695c-2.809 1.399-4.434 3.715-4.434 6.465l.008 29.535c0 .395-.156 3.945-6.637 5.953-1.375.422-2.582.754-3.652 1.047-1.586.438-2.902.793-4.105 1.258-2.18.832-4.133 1.89-5.836 3.156" style="fill:#003f97;fill-opacity:1;fill-rule:nonzero;stroke:none;stroke-width:.290682" transform="matrix(1.21362 0 0 1.21362 -201.423 -280.062)"/><path d="M187.8 240.953c0 .719-.003 1.328.028 1.617.031.235.082.375.32.414.11.012.227.012.293.02.07.008.114.035.114.082 0 .043-.02.07-.137.07-.543 0-1.168-.02-1.23-.02-.067 0-.86.02-1.325.02-.105 0-.133-.027-.133-.07 0-.027.02-.067.114-.082.117-.008.218-.012.355-.027.27-.04.32-.192.332-.465.016-.32.024-.84.024-1.559v-1.98c0-.211-.024-.328-.118-.328-.136 0-.296.058-.457.109a.666.666 0 0 1-.195.059c-.035 0-.066-.012-.066-.051 0-.035.03-.07.082-.102a56.717 56.717 0 0 0 1.785-1.082c.062-.043.137-.086.187-.086.055 0 .067.055.067.125 0 .059-.04.805-.04 1.914M192.059 238.836c0-.54-.395-.863-.82-.863-.493 0-.747.316-.747.68 0 .41.356.734 1.145 1.105.242-.192.422-.469.422-.922m-1.793 2.914c0 .645.488 1.102 1.054 1.102.434 0 .856-.223.856-.825 0-.59-.574-.914-1.41-1.379-.23.204-.5.516-.5 1.102m3.078-.172c0 .918-.813 1.68-2.14 1.68-1.263 0-2.032-.578-2.032-1.45 0-.73.625-1.085 1.246-1.347-.664-.352-1-.856-1-1.43 0-.68.523-1.457 1.953-1.457 1.027 0 1.727.477 1.727 1.184 0 .758-.684 1.043-1.075 1.195.747.39 1.32.832 1.32 1.625M198.129 239.734c0 2.024-1.844 3.266-3.219 3.532-.074.015-.144.03-.195.03-.067 0-.098-.015-.098-.05 0-.031.031-.059.14-.11 1.239-.617 2.04-1.952 2.04-3.308 0-1.187-.317-1.855-.903-1.855-.433 0-.71.398-.71 1.074 0 .984.48 1.363.914 1.363a.93.93 0 0 0 .261-.027c.067-.016.121-.031.153-.031.035 0 .058.008.058.043 0 .027-.027.066-.035.074-.191.21-.559.433-1.066.433-.957 0-1.516-.644-1.516-1.507 0-.946.781-1.82 2.102-1.82 1.457 0 2.074 1.085 2.074 2.16M203.098 239.734c0 2.024-1.844 3.266-3.22 3.532a1.142 1.142 0 0 1-.198.03c-.063 0-.09-.015-.09-.05 0-.031.027-.059.137-.11 1.238-.617 2.035-1.952 2.035-3.308 0-1.187-.313-1.855-.899-1.855-.437 0-.71.398-.71 1.074 0 .984.48 1.363.913 1.363a.93.93 0 0 0 .262-.027c.063-.016.121-.031.153-.031.035 0 .058.008.058.043 0 .027-.031.066-.039.074-.187.21-.559.433-1.062.433-.961 0-1.52-.644-1.52-1.507 0-.946.785-1.82 2.105-1.82 1.457 0 2.075 1.085 2.075 2.16M215.98 248.965c-.417.414-.906.633-1.402.633h-8.789c-.394 0-.777.164-1.11.476l-4.367 4.38a9.536 9.536 0 0 0-.742-.278 7.768 7.768 0 0 0-1.203-.266l4.297-4.512 1.375-1.41c.34-.347.742-.539 1.16-.547l12.168-.027zm-3.39 2.98c-.45.383-.965.582-1.492.582h-7.399l1.422-1.304c.445-.383.961-.586 1.492-.586h7.399zm-2.852 3.032c-.449.382-.96.586-1.492.586h-6.016a7.956 7.956 0 0 0-.8-.54l.84-.77c.449-.382.96-.581 1.492-.581h7.398zm-2.832 3.03c-.445.384-.957.587-1.488.587h-1.555l.012-.024c.102-.293.16-.761-.14-1.367a3.703 3.703 0 0 0-.321-.504h4.918zm-23.504.587c-.535 0-1.047-.203-1.492-.586l-1.426-1.309h7.399c.058 0 .113.016.172.02a6.015 6.015 0 0 0-1.11 1.875zm-4.32-3.617-1.426-1.305h7.403c.527 0 1.039.2 1.488.582l1.426 1.309h-7.403c-.53 0-1.043-.204-1.488-.586m-2.852-3.032-1.425-1.308h7.398c.531 0 1.047.203 1.492.586l1.426 1.304h-7.402c-.528 0-1.043-.199-1.489-.582m-1.992-2.347c-.496 0-.98-.22-1.398-.633l-1.39-1.55 12.171.026c.414.008.816.2 1.156.547l1.375 1.41 5.032 5.286a9.085 9.085 0 0 0-.68.27 8.003 8.003 0 0 0-.977.526l-5.39-5.406c-.332-.312-.715-.476-1.106-.476zm44.102-2.746c-.262-.454-.754-.723-1.313-.723l-11.851.027c-.754.012-1.485.344-2.055.934l-6.355 6.644.078-3.449a3.342 3.342 0 0 0 1.004-2.394 3.373 3.373 0 0 0-3.368-3.368 3.373 3.373 0 0 0-3.37 3.368c0 .925.374 1.761.98 2.375l.082 3.597-6.477-6.773c-.57-.59-1.3-.922-2.05-.934l-11.856-.027c-.559 0-1.05.27-1.313.723-.269.46-.261 1.039.024 1.543l.215.277 1.218 1.207c.54.531 1.192.851 1.868.953a1.51 1.51 0 0 0 .511 1.164l1.082.93c.391.336.829.566 1.286.715-.082.515.09 1.05.488 1.39l1.078.926c.387.328.816.563 1.266.707a1.51 1.51 0 0 0 .484 1.399l1.078.925c.684.582 1.484.89 2.328.89h3.196c-.07.423-.118.856-.118 1.317 0 .176.067 4.371 5.688 6.54.105.038.215.077.32.117l.117 5.3c-1.879.996-4.195 2.235-4.25 4.813-.054 2.52 2.278 3.726 4.465 4.625l.102 4.457c-1.063 1.047-1.176 2.336-.301 3.363l.027.031c.051.055.188.2.36.368l.062 2.808a1.4 1.4 0 0 0 2.797.02l.106-4.766c1.32-.703 3.257-2.105 3.257-4.297 0-2.25-1.785-3.664-3.062-4.383l.098-4.332c3.363-1.64 4.84-2.992 4.984-5.484.09-1.594-.543-2.883-1.879-3.828-.656-.465-1.734-.985-2.86-1.5l.137-5.945c.442.128.817.269 1.176.41.488.183.988.375 1.586.5.441.09.934.136 1.426.136.418 0 .972-.086 1.5-.27h3.082c.84 0 1.644-.308 2.324-.89l1.078-.926c.403-.343.57-.875.485-1.398a3.671 3.671 0 0 0 1.265-.707l1.078-.926c.399-.34.57-.875.489-1.39a3.71 3.71 0 0 0 1.285-.715l1.082-.93a1.51 1.51 0 0 0 .512-1.164 3.35 3.35 0 0 0 1.867-.953l1.218-1.207.215-.278c.285-.503.293-1.082.024-1.542" style="fill:#fff;fill-opacity:1;fill-rule:nonzero;stroke:none;stroke-width:.290682" transform="matrix(1.21362 0 0 1.21362 -201.423 -280.062)"/><path d="M199.285 255.09c-1.355-.422-2.574-.32-3.332-.188 0 0-.062 0-.168-.004l.113-5.058a2.409 2.409 0 0 0-1.418-4.36 2.412 2.412 0 0 0-2.414 2.41c0 .793.383 1.493.97 1.93l.12 5.309c-2.484.472-5.722 1.89-5.722 6.066 0 0 .004 3.688 5.078 5.645.3.113.605.226.918.336l.148 6.574a7.085 7.085 0 0 0-.46.215c-1.786.945-3.766 1.98-3.81 4.02-.042 2.1 2.231 3.07 4.454 3.956l.125 5.559a1.688 1.688 0 0 0-.282.21c-.515.509-.953 1.263-.253 2.083 0 0 .3.324.601.594l.07 3.23a.444.444 0 0 0 .887 0l.121-5.344c1.059-.484 3.242-1.722 3.242-3.699 0-1.75-1.453-2.91-2.53-3.527l-.06 1.836c1.07.742 2.16 2.058.009 3.668-.11.082-.348.199-.63.336l.239-10.547-1.648.812.066 2.942c-1.984-.973-3.844-2.29-.09-4.067v.012l.68-.32c4.648-2.09 5.863-3.258 5.988-5.399.063-1.117-.305-2.164-1.477-2.996-.527-.371-1.406-.805-2.347-1.242l-.067 2.351c.848.516 1.422 1.168 1.422 2.106 0 .98-1.222 1.789-2.449 2.402l.309-13.789c-1.34-.457-2.215-.203-2.446-.117l.13 5.61a9.099 9.099 0 0 1-.63-.348c-1.601-1.016-2.718-2.39-2.472-3.82.3-1.754 1.84-2.88 4.726-2.872.2 0 .375.028.555.055 2.004.305 2.789.926 4.05 1.188 1.305.261 3.13.09 3.372-.598.293-.824-1.652-2.524-3.688-3.16" style="fill:#fff;fill-opacity:1;fill-rule:nonzero;stroke:none;stroke-width:.290682" transform="matrix(1.21362 0 0 1.21362 -201.423 -280.062)"/><path d="m195.48 283.148-.074 3.188a.665.665 0 0 0 .086-.055c.742-.554 1.113-1.094 1.102-1.605-.012-.633-.606-1.172-1.102-1.52zm-1.875 6.43s.286.305.57.559l.106.097.078 3.375c0 .137.22.13.22.008l.124-5.558.188-.09c.918-.418 3.05-1.59 3.05-3.39 0-1.333-.937-2.301-1.886-2.942l-.036 1.078c.813.602 1.23 1.258 1.243 1.95.011.738-.45 1.464-1.371 2.152-.122.09-.325.195-.684.37l-.492.239.238-10.543-.96.473.073 3.277-.492-.242c-1.215-.59-2.453-1.336-2.445-2.36.004-.8.773-1.554 2.355-2.304l.477-.223v.012l.207-.098c4.863-2.187 5.687-3.3 5.793-5.117.066-1.137-.371-2.02-1.336-2.703-.441-.313-1.16-.676-1.832-.996l-.047 1.652c.953.629 1.418 1.379 1.418 2.29 0 1.241-1.508 2.132-2.637 2.694l-.496.247.32-14.09c-.84-.242-1.449-.18-1.765-.11l.133 5.91-.5-.253a8.082 8.082 0 0 1-.653-.364c-1.914-1.21-2.87-2.726-2.625-4.16.203-1.176 1.125-3.148 5.032-3.148.23.004.41.027.601.058 1.242.188 2.024.485 2.715.75.477.184.887.34 1.379.442 1.344.273 2.851.015 2.992-.38.027-.077 0-.206-.078-.359-.375-.75-1.828-1.882-3.398-2.37-1-.313-2.067-.372-3.172-.176l-.04.008-.527-.016.125-5.559.133-.097c.535-.39.855-1.02.855-1.68a2.082 2.082 0 0 0-2.078-2.078 2.083 2.083 0 0 0-2.082 2.078c0 .66.305 1.266.836 1.664l.133.098.129 5.75-.277.054c-2.485.473-5.45 1.856-5.45 5.739 0 .14.082 3.492 4.864 5.336.297.113.597.222.906.332l.219.078.156 7.023-.203.09a8.904 8.904 0 0 0-.438.203c-1.785.946-3.59 1.903-3.629 3.735-.039 1.793 1.817 2.672 4.243 3.636l.203.082.133 5.97-.157.1c-.129.083-.199.141-.23.173-.79.77-.512 1.296-.23 1.625m.863 4.816a.777.777 0 0 1-.778-.777l-.07-3.082c-.27-.25-.516-.516-.516-.516-.675-.797-.578-1.719.266-2.547.05-.047.11-.094.18-.144l-.118-5.16c-2.062-.825-4.503-1.872-4.457-4.192.047-2.223 2.122-3.32 3.95-4.29.097-.05.203-.097.312-.151l-.137-6.121a24.374 24.374 0 0 1-.707-.262c-5.23-2.016-5.293-5.797-5.293-5.957 0-3.305 2.028-5.547 5.715-6.336l-.11-4.871a2.724 2.724 0 0 1-.972-2.098 2.75 2.75 0 0 1 2.746-2.746 2.752 2.752 0 0 1 2.746 2.746 2.75 2.75 0 0 1-1 2.113l-.101 4.536c1.133-.168 2.226-.09 3.258.234 1.62.504 3.289 1.695 3.797 2.71.164.325.199.622.109.88-.344.957-2.402 1.086-3.754.808-.547-.11-1.004-.285-1.484-.468-.66-.254-1.407-.54-2.551-.715-.188-.028-.348-.051-.527-.051-2.536 0-4.086.922-4.375 2.594-.196 1.156.648 2.425 2.324 3.484l.101.063-.117-5.274.223-.082c.258-.094 1.222-.375 2.668.113l.23.078-.304 13.47c1.175-.653 1.773-1.27 1.773-1.84 0-.72-.402-1.301-1.262-1.825l-.164-.101.082-3.051.461.215c.805.37 1.809.855 2.399 1.273 1.148.813 1.691 1.918 1.613 3.285-.133 2.34-1.461 3.559-6.18 5.684l-1.105.52c-1.262.667-1.543 1.171-1.543 1.492-.004.57.918 1.156 1.578 1.507l-.059-2.593 2.328-1.153-.105 4.75.367.211c1.234.707 2.703 1.942 2.703 3.82 0 2.063-2.14 3.372-3.25 3.91l-.117 5.137c0 .422-.348.77-.773.77" style="fill:#003f94;fill-opacity:1;fill-rule:nonzero;stroke:none;stroke-width:.290682" transform="matrix(1.21362 0 0 1.21362 -201.423 -280.062)"/></g></g></svg>