<svg xmlns="http://www.w3.org/2000/svg" width="130.25mm" height="20.83mm" viewBox="0 0 130.25001 20.83"><path d="M116.211 2.739c-1.126 0-2.22 1.22-2.22 2.72 0 1.501 1.094 2.722 2.22 2.722 1.126 0 2.266-1.221 2.266-2.721 0-1.501-1.14-2.721-2.266-2.721m7.124 11.013V6.829h-2.321l-.017.058c-.614 2.189-2.583 3.718-4.786 3.718-2.75 0-4.986-2.309-4.986-5.145 0-2.837 2.237-5.145 4.986-5.145 2.316 0 4.362 1.694 4.866 4.027l.013.063h2.245V0h2.737v13.752zM127.496 0h2.737v13.751h-2.737zM105.85 0h3.07v20.388h-3.07zM94.368 12.975h5.156v-4.05h-5.156zM91.3 15.729V.633h3.07v5.538h5.155V.633h3.069V15.73ZM115.563 20.272V13.47h3.052v4.063h11.618v2.739zM69.482 15.53V.633h3.074v12.137h9.052v2.758zM83.082 20.418V0h3.074v6.655h2.838v2.758h-2.838v11.005zM42.104 11.032V8.608l-3.425-.016V6.457l3.425.016v-1.89l-3.19-.015V2.432l3.19.015V0h3.071v11.032ZM28.154 10.055c4.223-1.372 7.17-3.521 7.17-5.992l-.001-.97h-7.08V.647h9.839v3.156c0 5-5.425 7.524-8.954 8.585zM38.369 13.533c-1.786 0-3.24 1.129-3.24 2.517s1.454 2.517 3.24 2.517c1.786 0 3.239-1.13 3.239-2.517 0-1.388-1.453-2.517-3.24-2.517m0 7.268c-3.57 0-6.474-2.13-6.474-4.751 0-2.62 2.904-4.751 6.475-4.751 3.57 0 6.474 2.131 6.474 4.75 0 2.621-2.904 4.752-6.474 4.752M57.328 13.597c-1.804 0-3.272 1.119-3.272 2.494 0 1.376 1.468 2.495 3.272 2.495 1.805 0 3.273-1.119 3.273-2.495 0-1.375-1.468-2.494-3.273-2.494m0 7.204c-3.606 0-6.541-2.112-6.541-4.71 0-2.597 2.935-4.71 6.541-4.71 3.607 0 6.541 2.113 6.541 4.71 0 2.598-2.934 4.71-6.54 4.71M47.226 10.719V8.406h8.564V7.077h-6.173V.546H64.89v2.197h-12.2V4.88h12.2v2.198h-6.026v1.329h8.566v2.313z" style="fill:#0f2f6e;fill-opacity:1;fill-rule:nonzero;stroke:none;stroke-width:.15942"/><path d="M9.293 1.175H0v18.443h2.47l6.823-9.222z" style="fill:#ed7100;fill-opacity:1;fill-rule:nonzero;stroke:none;stroke-width:.15942"/><path d="m16.115 1.175-6.82 9.217-.002.005v9.221H24.59V1.175Z" style="fill:#0f2f6e;fill-opacity:1;fill-rule:nonzero;stroke:none;stroke-width:.15942"/><path d="m12.303 8.938.756.001-.004 4 3.851-3.995h.976l-2.874 2.925L18 15.644l-.947-.001-2.571-3.248-1.428 1.444-.001 1.799-.756-.001z" style="fill:#fff;fill-opacity:1;fill-rule:nonzero;stroke:none;stroke-width:.15942"/><path d="M22.798 13.402a3.138 3.138 0 0 0-.73-1.058 3.41 3.41 0 0 0-1.129-.705 3.968 3.968 0 0 0-1.44-.255l-2.326-.003-.002 1.729.757 1.005.001-2.035 1.57.003c.42 0 .803.07 1.147.207.345.137.636.326.875.565.24.24.424.52.554.843.13.322.196.669.195 1.039v.019c0 .37-.066.716-.197 1.038-.131.322-.317.6-.556.837-.24.235-.532.42-.876.554-.345.133-.728.2-1.15.2l-1.568-.003v-.725h-.755l-.002 1.423 2.325.003c.523 0 1.003-.085 1.44-.257a3.453 3.453 0 0 0 1.13-.707c.317-.3.561-.653.734-1.061.173-.408.26-.848.26-1.32v-.02c0-.472-.085-.91-.257-1.316" style="fill:#fff;fill-opacity:1;fill-rule:nonzero;stroke:none;stroke-width:.15942"/></svg>