<?xml version="1.0" encoding="UTF-8"?>
<svg id="Layer_1" xmlns="http://www.w3.org/2000/svg" version="1.1" viewBox="0 0 800 800">
  <!-- Generator: Adobe Illustrator 29.8.5, SVG Export Plug-In . SVG Version: 2.1.1 Build 2)  -->
  <defs>
    <style>
      .st0 {
        fill: #231f20;
      }

      .st1 {
        fill: #fff;
      }

      .st2 {
        fill: none;
      }
    </style>
  </defs>
  <rect class="st2" x="891.2" y="-5.67" width="811.34" height="811.34"/>
  <g>
    <rect class="st2" x="167.01" y="372.47" width="465.97" height="57.49"/>
    <g>
      <circle class="st1" cx="632.99" cy="420.59" r="7.26" transform="translate(116.64 978.22) rotate(-80.8)"/>
      <g>
        <path class="st1" d="M198.88,407.12c6.09-3.09,9.88-9.31,9.88-16.24,0-10.84-8.14-18.4-19.8-18.4h-21.94v56.41h11.75v-19.29h8.77l9.81,19.29h13.03l-12.07-21.47.59-.3ZM187.8,399.74h-9.04v-17.42h8.87c5.41,0,9.04,3.44,9.04,8.55,0,5.39-3.48,8.87-8.87,8.87"/>
        <path class="st1" d="M247.86,371.4c-17.11,0-30.02,12.58-30.02,29.27,0,8.11,3.02,15.53,8.5,20.9,5.51,5.41,13.15,8.38,21.52,8.38,17.11,0,30.03-12.59,30.03-29.28s-12.91-29.27-30.03-29.27M247.86,418.7c-10.3,0-17.77-7.58-17.77-18.02s7.64-18.02,17.77-18.02,17.69,7.75,17.69,18.02-7.43,18.02-17.69,18.02"/>
        <polygon class="st1" points="315.53 372.47 303.83 394.64 302.32 394.64 290.54 372.47 277.76 372.47 297.32 407.02 297.32 428.88 309.16 428.88 309.16 406.94 328.49 372.47 315.53 372.47"/>
        <path class="st1" d="M343.44,372.47l-19.18,56.41h12l3.38-10.21.84-2.8h21.31l.84,2.8,3.46,10.21h12.5l-19.43-56.41h-15.74ZM352.01,385.54l6.54,19.85h-14.82l6.62-19.85h1.66Z"/>
        <polygon class="st1" points="399.67 372.47 387.91 372.47 387.91 428.88 426.7 428.88 426.7 418.53 399.67 418.53 399.67 372.47"/>
        <path class="st1" d="M522.93,418.7c-10.27,0-17.45-7.41-17.45-18.02s7.34-18.02,17.45-18.02c7.14,0,13.09,3.99,14.98,9.97h12.91c-2.86-12.92-13.73-21.22-27.9-21.22-17.2,0-29.69,12.31-29.69,29.27,0,8.17,2.92,15.6,8.21,20.91,5.37,5.4,13.01,8.37,21.48,8.37,14.31,0,25.65-8.4,28.47-20.98h-13.04c-2.52,6.01-8.4,9.72-15.43,9.72"/>
        <path class="st1" d="M589.21,371.4c-17.11,0-30.02,12.58-30.02,29.27,0,8.11,3.02,15.53,8.49,20.9,5.51,5.41,13.16,8.38,21.53,8.38,17.11,0,30.03-12.59,30.03-29.28s-12.91-29.27-30.03-29.27M589.21,418.7c-10.3,0-17.77-7.58-17.77-18.02s7.64-18.02,17.77-18.02,17.69,7.75,17.69,18.02-7.44,18.02-17.69,18.02"/>
        <path class="st1" d="M476.77,415.54c4.34-6.2,6.01-12.96,5.08-20.65h-9.85c.86,5.03.02,9.63-2.34,12.73l-.46.59-8.5-9.05.82-.36c6.11-2.7,9.48-7.57,9.48-13.74,0-8.28-7.16-15.03-15.97-15.03s-15.96,6.74-15.96,15.03c0,4.21,1.89,8.25,5.19,11.09l.67.59-.77.45c-5.72,3.29-9.28,8.99-9.28,14.85,0,8.92,6.42,17.91,20.74,17.91,5.61,0,10.45-1.95,14.81-5.94l.46-.43,3.9,4.15,12.78.04-11.1-11.8.3-.42ZM455.03,378.99c3.25,0,5.9,2.65,5.9,5.9,0,.97-.25,1.95-.71,2.8-.26.49-.6.95-1.01,1.37l-4.18,4.43-4.19-4.45c-.39-.39-.73-.85-1-1.34-.46-.85-.7-1.82-.7-2.8,0-3.25,2.64-5.9,5.89-5.9M463.08,416.14c-1.89,2.16-4.46,3.3-7.43,3.3-.35,0-.71-.02-1.08-.04-4.58-.4-7.91-3.75-7.91-7.97,0-1.32.32-2.63.96-3.79.36-.66.81-1.27,1.33-1.8l2.59-2.75,11.91,12.62-.38.43Z"/>
      </g>
    </g>
  </g>
  <g>
    <rect class="st2" x="1063.88" y="372.47" width="465.97" height="57.49"/>
    <g>
      <g>
        <path class="st0" d="M1095.75,407.12c6.09-3.09,9.88-9.31,9.88-16.24,0-10.84-8.14-18.4-19.8-18.4h-21.94v56.41h11.75v-19.29h8.77l9.81,19.29h13.03l-12.07-21.47.59-.3ZM1084.67,399.74h-9.04v-17.42h8.87c5.41,0,9.04,3.44,9.04,8.55,0,5.39-3.48,8.87-8.87,8.87"/>
        <path class="st0" d="M1144.73,371.4c-17.11,0-30.02,12.58-30.02,29.27,0,8.11,3.02,15.53,8.5,20.9,5.51,5.41,13.15,8.38,21.52,8.38,17.11,0,30.03-12.59,30.03-29.28s-12.91-29.27-30.03-29.27M1144.73,418.7c-10.3,0-17.77-7.58-17.77-18.02s7.64-18.02,17.77-18.02,17.69,7.75,17.69,18.02-7.43,18.02-17.69,18.02"/>
        <polygon class="st0" points="1212.4 372.47 1200.7 394.64 1199.19 394.64 1187.41 372.47 1174.62 372.47 1194.19 407.02 1194.19 428.88 1206.03 428.88 1206.03 406.94 1225.36 372.47 1212.4 372.47"/>
        <path class="st0" d="M1240.31,372.47l-19.18,56.41h12l3.38-10.21.84-2.8h21.31l.84,2.8,3.46,10.21h12.5l-19.43-56.41h-15.74ZM1248.88,385.54l6.54,19.85h-14.82l6.62-19.85h1.66Z"/>
        <polygon class="st0" points="1296.54 372.47 1284.78 372.47 1284.78 428.88 1323.57 428.88 1323.57 418.53 1296.54 418.53 1296.54 372.47"/>
        <path class="st0" d="M1419.8,418.7c-10.27,0-17.45-7.41-17.45-18.02s7.34-18.02,17.45-18.02c7.14,0,13.09,3.99,14.98,9.97h12.91c-2.86-12.92-13.73-21.22-27.9-21.22-17.2,0-29.69,12.31-29.69,29.27,0,8.17,2.92,15.6,8.21,20.91,5.37,5.4,13.01,8.37,21.48,8.37,14.31,0,25.65-8.4,28.47-20.98h-13.05c-2.52,6.01-8.4,9.72-15.43,9.72"/>
        <path class="st0" d="M1486.08,371.4c-17.11,0-30.02,12.58-30.02,29.27,0,8.11,3.02,15.53,8.49,20.9,5.51,5.41,13.16,8.38,21.53,8.38,17.11,0,30.03-12.59,30.03-29.28s-12.91-29.27-30.03-29.27M1486.08,418.7c-10.3,0-17.77-7.58-17.77-18.02s7.64-18.02,17.77-18.02,17.69,7.75,17.69,18.02-7.44,18.02-17.69,18.02"/>
        <path class="st0" d="M1373.64,415.54c4.34-6.2,6.01-12.96,5.08-20.65h-9.85c.86,5.03.02,9.63-2.34,12.73l-.46.59-8.5-9.05.82-.36c6.11-2.7,9.48-7.57,9.48-13.74,0-8.28-7.16-15.03-15.97-15.03s-15.96,6.74-15.96,15.03c0,4.21,1.89,8.25,5.19,11.09l.68.59-.77.45c-5.72,3.29-9.28,8.99-9.28,14.85,0,8.92,6.42,17.91,20.74,17.91,5.61,0,10.45-1.95,14.81-5.94l.46-.43,3.9,4.15,12.78.04-11.1-11.8.3-.42ZM1351.9,378.99c3.25,0,5.9,2.65,5.9,5.9,0,.97-.25,1.95-.71,2.8-.26.49-.6.95-1.01,1.37l-4.18,4.43-4.19-4.45c-.39-.39-.73-.85-1-1.34-.46-.85-.7-1.82-.7-2.8,0-3.25,2.64-5.9,5.89-5.9M1359.95,416.14c-1.89,2.16-4.46,3.3-7.43,3.3-.35,0-.71-.02-1.08-.04-4.58-.4-7.91-3.75-7.91-7.97,0-1.32.32-2.63.96-3.79.36-.66.81-1.27,1.33-1.8l2.6-2.75,11.91,12.62-.38.43Z"/>
      </g>
      <circle class="st0" cx="1529.86" cy="420.59" r="7.26" transform="translate(869.64 1863.32) rotate(-80.78)"/>
    </g>
  </g>
</svg>