<svg xmlns="http://www.w3.org/2000/svg" xml:space="preserve" width="312.0412" height="312.0412" viewBox="0 0 312.0412 312.0412"><defs><clipPath id="a" clipPathUnits="userSpaceOnUse"><path d="M95.086 226.491h182.64V93.051H95.086Z"/></clipPath><clipPath id="b" clipPathUnits="userSpaceOnUse"><path d="M64.94 308.687h228.952V79.869H64.94Z"/></clipPath><clipPath id="c" clipPathUnits="userSpaceOnUse"><path d="M64.94 308.687h228.952V79.869H64.94Z"/></clipPath><clipPath id="e" clipPathUnits="userSpaceOnUse"><path d="M0 368.504h368.504V0H0Z"/></clipPath><linearGradient id="d" x1="0" x2="1" y1="0" y2="0" gradientTransform="scale(128.72836) rotate(48.447 -.735 1.759)" gradientUnits="userSpaceOnUse" spreadMethod="pad"><stop offset="0" style="stop-opacity:1;stop-color:#231f20"/><stop offset="0.624237" style="stop-opacity:1;stop-color:#231f20"/><stop offset="0.6872603" style="stop-opacity:1;stop-color:#231f20"/><stop offset="1" style="stop-opacity:1;stop-color:#fff"/></linearGradient></defs><g transform="matrix(1.33333 0 0 -1.33333 -125.689 385.099)"><circle cx="211.28192" cy="-171.80849" r="117.01546" style="fill:#f9f9f9;fill-opacity:1;stroke-width:1.07305" transform="scale(1 -1)"/><g style="fill:#0033a0;fill-opacity:1"><path d="M163.692 242.456c-31.368-12.942-46.304-48.85-33.379-80.228 12.947-31.368 48.859-46.32 80.222-33.366 31.368 12.94 46.318 48.86 33.39 80.206-9.787 23.716-32.7 38.041-56.844 38.041a61.226 61.226 0 0 1-23.389-4.653" style="fill:#0033a0;fill-opacity:1;stroke:none" transform="matrix(1.1421 0 0 1.1421 -2.483 -39.581)"/></g><g style="fill:#fff;fill-opacity:1"><path d="M174.403 239.508c-5.212-.552-11.253-4.11-12.501-9.099a5.984 5.984 0 0 1 .013-2.882c.203-.791.264-1.615.111-2.654-.873-4.77-5.473-9.488-10.109-10.381-1.042-.138-1.75-.125-2.563.051-.576.169-1.748.186-2.779-.01-4.874-1.239-8.483-6.997-8.938-12.347-.394-6.319 2.099-11.266 7.127-11.695.978-.027 2.418.326 3.029.587.873.414 1.817.627 2.977.583 5.196-.292 9.453-5.039 9.912-11.068.043-1.346-.229-2.622-.532-3.775-.188-.723-.729-2.857-.644-4.375.759-7.214 6.402-12.162 13.888-12.703 7.465-.101 13.181 4.529 13.563 11.942 0 1.603-.301 2.933-.774 4.413-.351 1.093-.909 2.676-.951 4.079.042 6.76 4.102 11.079 10.836 11.246 1.344.011 2.457-.261 3.675-.573 1.406-.374 2.708-.706 4.207-.696 7.136.386 11.588 5.89 11.515 13.17-.484 7.273-5.223 12.761-12.16 13.472-.986.083-1.882 0-2.801-.146-.12-.022-.233-.03-.35-.07-.18-.028-.358-.087-.523-.116-4.448-1.229-7.753-4.782-8.737-10.019-1.143-6.788-6.519-11.7-13.766-11.898-7.993.239-13.523 6.132-13.546 13.809.39 6.783 4.884 11.678 11.25 13.104 6.653 1.208 11.139 6.119 11.159 10.796-.361 4.702-4.541 7.317-10.082 7.317-.493 0-.994-.021-1.506-.062" style="fill:#fff;fill-opacity:1;stroke:none" transform="matrix(1.1421 0 0 1.1421 -2.483 -39.581)"/></g><g clip-path="url(#e)" style="fill:#0033a0;fill-opacity:1" transform="matrix(1.1421 0 0 1.1421 -2.483 -39.581)"><g style="fill:#0033a0;fill-opacity:1"><path d="M0 0c-54.426 0-98.705-44.28-98.705-98.707 0-54.426 44.279-98.706 98.705-98.706 54.426 0 98.704 44.28 98.704 98.706C98.704-44.28 54.426 0 0 0m0-199.684c-55.678 0-100.977 45.299-100.977 100.977C-100.977-43.028-55.678 2.271 0 2.271c55.678 0 100.974-45.299 100.974-100.978 0-55.678-45.296-100.977-100.974-100.977" style="fill:#0033a0;fill-opacity:1;fill-rule:nonzero;stroke:none" transform="translate(187.118 284.358)"/></g><g style="fill:#0033a0;fill-opacity:1"><path d="M0 0c-36.335 0-65.896-29.561-65.896-65.896 0-36.334 29.561-65.895 65.896-65.895s65.895 29.561 65.895 65.895C65.895-29.561 36.335 0 0 0m0-133.476c-37.266 0-67.581 30.316-67.581 67.58C-67.581-28.631-37.266 1.686 0 1.686c37.264 0 67.58-30.317 67.58-67.582 0-37.264-30.316-67.58-67.58-67.58" style="fill:#0033a0;fill-opacity:1;fill-rule:nonzero;stroke:none" transform="translate(187.118 251.547)"/></g><g style="fill:#0033a0;fill-opacity:1"><path d="M0 0c-52.715 0-95.602-42.889-95.602-95.604 0-52.714 42.887-95.599 95.602-95.599s95.601 42.885 95.601 95.599C95.601-42.889 52.715 0 0 0m0-192.327c-53.335 0-96.725 43.389-96.725 96.723 0 53.335 43.39 96.728 96.725 96.728 53.334 0 96.725-43.393 96.725-96.728 0-53.334-43.391-96.723-96.725-96.723" style="fill:#0033a0;fill-opacity:1;fill-rule:nonzero;stroke:none" transform="translate(187.118 281.255)"/></g><g style="fill:#0033a0;fill-opacity:1"><path d="M0 0c-.298-.252-1.536-1.246-.635-2.6.987-1.482 2.946-1.07 4.867.205.554.371 3.198 2.127 1.903 4.075-.557.839-1.617 1.287-2.882.502L1.855 4.283c.583.331 1.48.854 2.75.619 1.401-.257 2.29-1.174 2.855-2.025 2.136-3.211.456-5.834-1.853-7.369C2.654-6.455-.402-6.107-2.145-3.49c-1.353 2.039-1.068 4.294.79 5.527z" style="fill:#0033a0;fill-opacity:1;fill-rule:nonzero;stroke:none" transform="translate(117.335 142.036)"/></g><g style="fill:#0033a0;fill-opacity:1"><path d="m0 0-1.047 2.158 4.025 1.953-1.845 3.802-4.027-1.955-1.059 2.188 10.068 4.883 1.048-2.156L2.748 8.73 4.606 4.9l4.415 2.143 1.046-2.158Z" style="fill:#0033a0;fill-opacity:1;fill-rule:nonzero;stroke:none" transform="translate(111.781 144.105)"/></g><g style="fill:#0033a0;fill-opacity:1"><path d="m0 0 6.497 2.051c1.166.371 2.6.922 1.897 3.15-.118.369-.482 1.473-1.584 1.774-.396.119-.846.105-1.922-.236l-6.38-2.014-.704 2.23 6.658 2.104c3.176 1.002 4.991-1.201 5.672-3.356.336-1.063.717-3.088-.576-4.6C8.908.33 8.092.039 7.103-.273L.724-2.287Z" style="fill:#0033a0;fill-opacity:1;fill-rule:nonzero;stroke:none" transform="translate(105.959 157.407)"/></g><g style="fill:#0033a0;fill-opacity:1"><path d="m0 0-.53 3.426 8.061 5.49-8.704-1.345-.34 2.202 11.06 1.712.504-3.257-8.516-5.704 9.178 1.418.347-2.231Z" style="fill:#0033a0;fill-opacity:1;fill-rule:nonzero;stroke:none" transform="translate(102.977 167.597)"/></g><g style="fill:#0033a0;fill-opacity:1"><path d="M0 0c-.295-.02-.696-.041-1.125-.328-.735-.477-.847-1.361-.837-1.889.045-2.724 2.594-3.224 4.313-3.197.757.015 2.121.144 2.989.98.609.567.938 1.315.916 2.649C6.237-.623 6.091-.224 6.009.039L3.655 0l.035-2.168-1.856-.031-.077 4.568 5.592.094c.243-.694.649-1.834.686-4.08.042-2.555-.556-3.881-1.408-4.779-1.202-1.274-2.98-1.536-4.155-1.555-3.965-.067-6.127 2.377-6.184 5.767-.023 1.44.354 2.934 1.346 3.833.84.758 1.72.82 2.324.845z" style="fill:#0033a0;fill-opacity:1;fill-rule:nonzero;stroke:none" transform="translate(104.606 187.837)"/></g><g style="fill:#0033a0;fill-opacity:1"><path d="m0 0 .503 3.431 9.322 2.872-8.714 1.279.325 2.204 11.072-1.624-.481-3.263L2.211 1.96 11.398.612l-.328-2.236Z" style="fill:#0033a0;fill-opacity:1;fill-rule:nonzero;stroke:none" transform="translate(101.42 193.39)"/></g><g style="fill:#0033a0;fill-opacity:1"><path d="m0 0-5.016-.11 4.092-2.961zm-6.693 1.947 11.843.5L4.455.133 1.909.056.634-4.186l2.074-1.497-.66-2.194-9.562 7.094Z" style="fill:#0033a0;fill-opacity:1;fill-rule:nonzero;stroke:none" transform="translate(111.936 209.836)"/></g><g style="fill:#0033a0;fill-opacity:1"><path d="m0 0 1.728 3.519 8.358-1.461-6.189 5.884 1.679 3.421 10.057-4.935-1.052-2.14-8.623 4.231 7.277-6.973-.873-1.778-9.939 1.546 8.622-4.232-.989-2.016Z" style="fill:#0033a0;fill-opacity:1;fill-rule:nonzero;stroke:none" transform="translate(107.135 217.707)"/></g><g style="fill:#0033a0;fill-opacity:1"><path d="m0 0 2.302 2.597 9.381-2.703-6.598 5.843 1.478 1.67L14.946-.02l-2.187-2.469L2.927.429l6.956-6.164-1.501-1.694Z" style="fill:#0033a0;fill-opacity:1;fill-rule:nonzero;stroke:none" transform="translate(119.527 238.908)"/></g><g style="fill:#0033a0;fill-opacity:1"><path d="m0 0-4.263 2.644 1.813-4.713zm-4.547 5.285L5.651-.761l-1.843-1.56L1.631-.994l-3.384-2.86.921-2.385-1.752-1.48-4.142 11.164z" style="fill:#0033a0;fill-opacity:1;fill-rule:nonzero;stroke:none" transform="translate(137.303 246.906)"/></g><g style="fill:#0033a0;fill-opacity:1"><path d="m0 0-2.759-1.866L-3.8-.327l7.518 5.085 1.04-1.537L2 1.354 7.232-6.38l-2-1.353z" style="fill:#0033a0;fill-opacity:1;fill-rule:nonzero;stroke:none" transform="translate(139.067 254.624)"/></g><g style="fill:#0033a0;fill-opacity:1"><path d="m0 0 2.092 1.175 5.496-9.784-2.093-1.176Z" style="fill:#0033a0;fill-opacity:1;fill-rule:nonzero;stroke:none" transform="translate(144.057 260.04)"/></g><g style="fill:#0033a0;fill-opacity:1"><path d="M0 0c.498-.291 1.196-.459 2.218-.015.894.389 1.369.966 1.504 1.785.118.659.129 1.607-.582 3.242-.217.497-.569 1.188-1.053 1.72C1.11 7.811.005 7.988-1.046 7.53c-.823-.357-1.329-.983-1.512-1.686-.273-.963.037-2.145.543-3.31C-1.587 1.555-.956.529 0 0m-1.745 9.101c1.094.475 2.71.875 4.212.176 1.636-.774 2.548-2.285 2.985-3.294.649-1.491.886-3.278.453-4.582-.579-1.772-2.159-2.677-3.011-3.047-1.349-.587-2.884-.747-4.248-.175-1.639.705-2.522 2.346-2.929 3.284-1.185 2.726-1.155 6.033 2.538 7.638" style="fill:#0033a0;fill-opacity:1;fill-rule:nonzero;stroke:none" transform="translate(154.549 255.578)"/></g><g style="fill:#0033a0;fill-opacity:1"><path d="m0 0 3.354.884 6.3-7.45-2.243 8.52 2.155.566 2.852-10.823-3.189-.841-6.558 7.878 2.367-8.982-2.186-.575z" style="fill:#0033a0;fill-opacity:1;fill-rule:nonzero;stroke:none" transform="translate(160.403 267.463)"/></g><g style="fill:#0033a0;fill-opacity:1"><path d="m0 0-2.072 4.564-1.114-4.923Zm-.842 6.916L4.271-3.772l-2.399-.27L.803-1.733l-4.401-.495-.559-2.493-2.279-.257 2.764 11.575Z" style="fill:#0033a0;fill-opacity:1;fill-rule:nonzero;stroke:none" transform="translate(179.644 264.253)"/></g><g style="fill:#0033a0;fill-opacity:1"><path d="m0 0 2.447-.041-.153-9.277 4.8-.079-.031-1.905-7.249.119z" style="fill:#0033a0;fill-opacity:1;fill-rule:nonzero;stroke:none" transform="translate(184.823 271.59)"/></g><g style="fill:#0033a0;fill-opacity:1"><path d="m0 0-1.274-6.692C-1.505-7.895-1.7-9.418.599-9.855c.379-.073 1.523-.275 2.31.552.292.292.494.695.706 1.804L4.867-.928l2.298-.438-1.309-6.859c-.623-3.271-3.421-3.825-5.644-3.401-1.094.209-3.057.834-3.775 2.69-.374.937-.243 1.795-.045 2.813L-2.356.45z" style="fill:#0033a0;fill-opacity:1;fill-rule:nonzero;stroke:none" transform="translate(200.83 270.474)"/></g><g style="fill:#0033a0;fill-opacity:1"><path d="m0 0 3.271-1.159 1.005-9.708 2.95 8.304 2.1-.747-3.745-10.55-3.107 1.103-.98 10.206-3.106-8.757-2.133.757z" style="fill:#0033a0;fill-opacity:1;fill-rule:nonzero;stroke:none" transform="translate(211.2 268.28)"/></g><g style="fill:#0033a0;fill-opacity:1"><path d="m0 0 2.168-1.027-4.8-10.145-2.17 1.026z" style="fill:#0033a0;fill-opacity:1;fill-rule:nonzero;stroke:none" transform="translate(222.744 263.884)"/></g><g style="fill:#0033a0;fill-opacity:1"><path d="m0 0-1.978-9.044 7.022 6.041L7.08-4.214l-9.244-7.475-2.249 1.339 2.164 11.689z" style="fill:#0033a0;fill-opacity:1;fill-rule:nonzero;stroke:none" transform="translate(228.64 260.875)"/></g><g style="fill:#0033a0;fill-opacity:1"><path d="m0 0 5.893-4.63-1.13-1.437L.757-2.918-.889-5.013l3.75-2.947-1.129-1.437-3.75 2.948-1.866-2.375 4.141-3.253-1.152-1.463-6.025 4.738z" style="fill:#0033a0;fill-opacity:1;fill-rule:nonzero;stroke:none" transform="translate(237.345 255.443)"/></g><g style="fill:#0033a0;fill-opacity:1"><path d="m0 0 1.362-1.374c.198-.198.59-.594 1.083-.649.207-.035.799-.081 1.359.475.539.533.53 1.049.476 1.301-.075.449-.391.768-.926 1.308L2.22 2.205Zm1.805 5.128 3.02-3.045c.884-.868 1.768-1.759 1.851-2.94a2.835 2.835 0 0 0-.841-2.208c-1.483-1.476-3.102-.548-3.593-.27 1.079-1.311.486-2.074-.407-3.242C1.021-7.625.702-8.073.536-8.346.271-8.782.25-8.937.204-9.155l-1.864 1.88c.363.513 2.135 2.752 2.334 3.168.298.599-.117 1.017-.402 1.303L-1.21-1.309l-3.21-3.186-1.724 1.738z" style="fill:#0033a0;fill-opacity:1;fill-rule:nonzero;stroke:none" transform="translate(243.283 244.061)"/></g><g style="fill:#0033a0;fill-opacity:1"><path d="M0 0c-.417-.32-1.701-1.27-.443-2.902.793-1.032 1.784-1.304 2.533-.727.786.604.497 1.26-.103 2.598C.89 1.487.629 3.124 2.163 4.304c1.461 1.125 3.554 1.072 5.452-1.395.709-.92 1.341-2.174 1.017-3.479-.251-.995-.963-1.543-1.258-1.77L5.966-.511c.288.261 1.257 1.162.245 2.476-.68.885-1.605 1.093-2.328.535-.822-.632-.469-1.396.195-2.92.812-1.818 1.557-3.649-.174-4.981C2.307-6.629-.001-6.296-1.892-3.84c-2.618 3.4-.451 5.108.4 5.78z" style="fill:#0033a0;fill-opacity:1;fill-rule:nonzero;stroke:none" transform="translate(247.87 235.083)"/></g><g style="fill:#0033a0;fill-opacity:1"><path d="m0 0 1.286-2.026-9.474-6.017-1.286 2.025z" style="fill:#0033a0;fill-opacity:1;fill-rule:nonzero;stroke:none" transform="translate(259.028 232.732)"/></g><g style="fill:#0033a0;fill-opacity:1"><path d="m0 0-1.546 2.95 1.647.862 4.212-8.04-1.648-.861-1.545 2.95-8.272-4.334-1.121 2.14z" style="fill:#0033a0;fill-opacity:1;fill-rule:nonzero;stroke:none" transform="translate(261.081 225.623)"/></g><g style="fill:#0033a0;fill-opacity:1"><path d="m0 0-3.944-3.962 5.596-.394.872-2.302-7.954 1.024-3.805-1.444-.84 2.215 3.836 1.455 5.246 6.029z" style="fill:#0033a0;fill-opacity:1;fill-rule:nonzero;stroke:none" transform="translate(266.667 218.07)"/></g><g style="fill:#0033a0;fill-opacity:1"><path d="m0 0 .42-2.363-4.405-.783.739-4.162 4.405.784.426-2.394-11.023-1.958-.42 2.363 4.834.858-.747 4.192-4.833-.858-.419 2.363z" style="fill:#0033a0;fill-opacity:1;fill-rule:nonzero;stroke:none" transform="translate(270.897 205.26)"/></g><g style="fill:#0033a0;fill-opacity:1"><path d="M0 0c-.453-.354-.867-.939-.834-2.055.03-.974.392-1.629 1.102-2.056.567-.353 1.447-.712 3.224-.659.543.019 1.315.088 1.987.342 1.363.507 1.938 1.468 1.901 2.614-.027.896-.42 1.596-1.008 2.026C5.58.824 4.367.971 3.1.934 2.032.9.846.691 0 0m9.097-1.746c.037-1.192-.19-2.839-1.395-3.977-1.323-1.233-3.063-1.52-4.163-1.552-1.623-.051-3.371.39-4.42 1.272-1.432 1.192-1.688 2.997-1.717 3.925-.046 1.471.372 2.954 1.409 4.008 1.26 1.261 3.112 1.474 4.132 1.506 2.971.091 6.03-1.161 6.154-5.182" style="fill:#0033a0;fill-opacity:1;fill-rule:nonzero;stroke:none" transform="translate(264.107 190.134)"/></g><g style="fill:#0033a0;fill-opacity:1"><path d="M0 0c-.523.057-2.107.259-2.328-1.789-.14-1.295.388-2.176 1.326-2.277C-.016-4.173.229-3.5.722-2.118 1.669.459 2.611 1.82 4.535 1.613 6.369 1.416 7.844-.068 7.51-3.164c-.124-1.154-.534-2.498-1.671-3.215-.869-.546-1.763-.449-2.133-.409l.248 2.295c.389-.01 1.711-.028 1.889 1.617.12 1.11-.403 1.899-1.311 1.998-1.032.11-1.305-.686-1.878-2.244C1.982-4.998 1.256-6.834-.916-6.6c-2.001.215-3.438 2.054-3.106 5.134.46 4.266 3.205 4.001 4.284 3.9z" style="fill:#0033a0;fill-opacity:1;fill-rule:nonzero;stroke:none" transform="translate(265.185 179.35)"/></g><g style="fill:#0033a0;fill-opacity:1"><path d="m0 0-.219-.935C-.396-1.688-.725-3.091.934-3.479c1.477-.348 1.77.904 1.926 1.568l.276 1.178zm5.439 1.158-.788-3.362c-.367-1.567-.779-2.854-2.077-3.504-.828-.411-1.633-.316-2.19-.186-1.266.297-2.212 1.075-2.569 2.065-.325.918-.068 2.019.067 2.592l.371 1.584-4.236.991.554 2.368z" style="fill:#0033a0;fill-opacity:1;fill-rule:nonzero;stroke:none" transform="translate(266.135 168.447)"/></g><g style="fill:#0033a0;fill-opacity:1"><path d="m0 0-.744-2.281-10.669 3.48.745 2.28z" style="fill:#0033a0;fill-opacity:1;fill-rule:nonzero;stroke:none" transform="translate(269.204 160.136)"/></g><g style="fill:#0033a0;fill-opacity:1"><path d="m0 0 1.297 3.068 1.713-.724-3.537-8.362-1.712.725 1.297 3.067-8.603 3.64.941 2.228z" style="fill:#0033a0;fill-opacity:1;fill-rule:nonzero;stroke:none" transform="translate(265.022 154.023)"/></g><g style="fill:#0033a0;fill-opacity:1"><path d="m0 0 4.918-.978-3.354 3.777Zm6.11-3.35L-5.557-1.271-4.378.836l2.502-.478L.285 4.224l-1.698 1.91 1.119 2L7.502-.862z" style="fill:#0033a0;fill-opacity:1;fill-rule:nonzero;stroke:none" transform="translate(255.348 145.905)"/></g><g style="fill:#0033a0;fill-opacity:1"><path d="m0 0-1.247-1.726-7.52 5.434-2.444-3.387-1.545 1.117 3.692 5.112z" style="fill:#0033a0;fill-opacity:1;fill-rule:nonzero;stroke:none" transform="translate(258.415 137.658)"/></g><g style="fill:#0033a0;fill-opacity:1"><path d="m0 0-5.255 4.003 1.017 1.333 5.254-4.003zm.421-5.04-1.964-.524c-.367.345-2.682 2.587-3.176 4.791-2.164-.245-5.031 1.527-5.463 1.791l-.013 2.032c.684-.413 3.291-1.9 4.416-1.734l-3.164 2.411 1.069 1.401 9.572-7.293L.63-3.566l-3.136 2.389c.12-.985 2.347-3.311 2.927-3.863m-7.295-4.069c.431.563-.342 1.52-2.062 2.83-1.748 1.331-2.848 1.823-3.278 1.259-.347-.455.383-1.464 2.13-2.794 1.719-1.312 2.874-1.736 3.21-1.295m5.586.285L-6.35-4.967l-.554-.728C-4.416-7.852-3.779-9.729-4.6-10.8c-.921-1.211-3.296-.877-6.543 1.594-3.246 2.474-4.225 4.698-3.302 5.908.817 1.073 2.806.946 5.56-.89l.555.73-5.061 3.856 1.121 1.471L-.166-7.352z" style="fill:#0033a0;fill-opacity:1;fill-rule:nonzero;stroke:none" transform="translate(143.602 122.966)"/></g><g style="fill:#0033a0;fill-opacity:1"><path d="m0 0-1.862.872-1.285-2.739-2.082.974 3.414 7.282 2.082-.976-1.293-2.756 1.864-.872Zm-7.421-5.402.955 2.036-5.605 2.627-.953-2.036zM-5.612.814c-.934.209-3.076.853-5.301 1.895l-3.248 1.503 2.842 6.061 2.082-.977-1.976-4.211 1.182-.536c1.941-.91 4.094-1.613 5.268-1.916zm-.507-9.022-9.896 4.64 2.643 5.634 9.894-4.636z" style="fill:#0033a0;fill-opacity:1;fill-rule:nonzero;stroke:none" transform="translate(160.363 109.95)"/></g><g style="fill:#0033a0;fill-opacity:1"><path d="m0 0-2.157.489 1.613 7.115-1.383.314-1.46-6.439-2.158.49 3.137 13.822 2.157-.49-1.163-5.125 1.383-.313 1.239 5.463 2.157-.49zm-5.702 4.945c-.471.035-1.795.055-4.071.572l-2.245.506 2.282 10.047 5.41-1.226-.444-1.956-3.168.718-1.392-6.137 1.012-.228c1.099-.233 2.582-.339 3.05-.374z" style="fill:#0033a0;fill-opacity:1;fill-rule:nonzero;stroke:none" transform="translate(173.523 96.353)"/></g><g style="fill:#0033a0;fill-opacity:1"><path d="m0 0-2.005.033-.058-3.579-2.316.037.152 9.68 2.319-.037-.065-4.028 2.005-.031zm-8.363-.767c.008.555-.834.862-1.871.877-1.021.017-1.957-.279-1.967-.834-.009-.55.902-.877 1.939-.894 1.056-.016 1.889.299 1.899.851m.724 5.385-5.168.082.028 1.744 5.17-.08zm5.491-13.697-2.407.04.048 2.92-8.987.143.029 1.918 11.392-.179zM-5.927-.806c-.022-1.486-1.802-2.511-4.396-2.47-2.333.036-4.357 1.141-4.333 2.593.023 1.487 2.079 2.422 4.465 2.383C-7.686 1.662-5.902.666-5.927-.806m.495 2.914-9.61.155.028 1.78 9.612-.153z" style="fill:#0033a0;fill-opacity:1;fill-rule:nonzero;stroke:none" transform="translate(194.134 104.566)"/></g><g style="fill:#0033a0;fill-opacity:1"><path d="m0 0-14.911-3.033-.397 1.949 3.168.645-.991 4.879 2.286.465.994-4.879L-8.36.33l-.993 4.879 2.304.47.993-4.88 5.66 1.15zm-3.911 11.504c.827-4.066.685-7.537.676-8.26l-2.237-.457c-.004.193-.088 3.9-.515 6.264l-9.439-1.918-.395 1.947z" style="fill:#0033a0;fill-opacity:1;fill-rule:nonzero;stroke:none" transform="translate(212.264 100.487)"/></g><g style="fill:#0033a0;fill-opacity:1"><path d="m0 0-.447 1.014-2.595-1.146.446-1.014zm-.729-6.881C-2.706-7.755-3.686-8.753-3.398-9.4c.272-.62 1.729-.62 3.691.245 1.962.865 2.936 1.919 2.662 2.536-.284.648-1.721.601-3.684-.262m5.997 1.279c.711-1.612-.672-3.662-4.25-5.236-3.545-1.564-6.008-1.213-6.72.4-.712 1.615.673 3.665 4.235 5.234 3.592 1.582 6.022 1.218 6.735-.398m-9.436 2.363-.671 1.52-3.022-1.334.67-1.518zm7.921.43-2.105-.927-.88 1.995-2.596-1.146.544-1.235-7.202-3.175-3.148 7.138 2.09.923.899-2.043L-5.62.053l-.901 2.042 2.089.923.621-1.409 2.596 1.144-.838 1.899 2.106.93z" style="fill:#0033a0;fill-opacity:1;fill-rule:nonzero;stroke:none" transform="translate(223.042 114.103)"/></g><g style="fill:#0033a0;fill-opacity:1"><path d="m0 0-1.861-1.352-.66.911-2.786-2.02-1.065 1.469 2.784 2.02-4.995 6.884 1.861 1.351zm2.29-2.568-9.46-6.863-2.396 3.302 1.903 1.381 1.228-1.692L1.122-.959zm-12.92 5.855c-.275.377-1.109.647-2.202-.145-1.064-.771-1.067-1.65-.793-2.028.254-.349 1.122-.575 2.156.177 1.078.783 1.093 1.647.839 1.996m6.005-1.86C-5.571.463-7.751-1.33-8.649-2.004l1.289-1.777-1.904-1.381-1.279 1.764-2.645-1.919-1.157 1.595 4.128 2.994c1.259.915 3.807 3.083 4.435 3.751zm-9.201 3.086c2.21 1.604 4.104 1.292 4.986.073.904-1.244.553-3.145-1.616-4.719-2.17-1.574-4.095-1.305-4.988-.074-.871 1.205-.537 3.156 1.618 4.72" style="fill:#0033a0;fill-opacity:1;fill-rule:nonzero;stroke:none" transform="translate(243.197 119.696)"/></g></g></g></svg>